<svg width="375" height="269" viewBox="0 0 375 269" fill="none" xmlns="http://www.w3.org/2000/svg">
<g filter="url(#filter0_d_535_2558)">
<rect x="19.939" y="9.83325" width="335.122" height="229" rx="16.7561" fill="white"/>
</g>
<rect x="59.0366" y="66.804" width="36.8634" height="29.0439" fill="white"/>
<rect x="95.8999" y="66.804" width="36.8634" height="29.0439" fill="white"/>
<path d="M113.439 78.5079V83.2991H112.833V79.2639L111.613 79.7089V79.1624L113.344 78.5079H113.439Z" fill="#172755"/>
<rect x="132.763" y="66.804" width="36.8634" height="29.0439" fill="white"/>
<path d="M151.434 82.8016V83.2991H148.315V82.8638L149.877 81.126C150.069 80.9122 150.217 80.7311 150.322 80.5828C150.429 80.4322 150.503 80.298 150.544 80.1802C150.588 80.0602 150.61 79.938 150.61 79.8137C150.61 79.6566 150.577 79.5148 150.511 79.3882C150.448 79.2595 150.354 79.157 150.23 79.0806C150.106 79.0042 149.955 78.966 149.778 78.966C149.567 78.966 149.39 79.0075 149.248 79.0904C149.109 79.1711 149.004 79.2846 148.934 79.4308C148.864 79.5769 148.829 79.7449 148.829 79.9348H148.224C148.224 79.6664 148.283 79.421 148.401 79.1984C148.518 78.9759 148.693 78.7991 148.924 78.6682C149.155 78.5351 149.44 78.4686 149.778 78.4686C150.079 78.4686 150.337 78.5221 150.551 78.629C150.765 78.7337 150.928 78.8821 151.042 79.074C151.157 79.2639 151.215 79.4864 151.215 79.7417C151.215 79.8813 151.191 80.0231 151.143 80.1671C151.097 80.3089 151.033 80.4508 150.95 80.5926C150.869 80.7344 150.774 80.874 150.665 81.0115C150.558 81.1489 150.444 81.2842 150.322 81.4173L149.045 82.8016H151.434Z" fill="#172755"/>
<rect x="169.627" y="66.804" width="36.8634" height="29.0439" fill="white"/>
<path d="M186.059 80.6188H186.491C186.703 80.6188 186.878 80.5838 187.015 80.514C187.155 80.442 187.258 80.3449 187.326 80.2228C187.396 80.0984 187.431 79.9588 187.431 79.8039C187.431 79.6206 187.4 79.4668 187.339 79.3424C187.278 79.218 187.186 79.1242 187.064 79.061C186.942 78.9977 186.787 78.966 186.599 78.966C186.429 78.966 186.279 78.9999 186.148 79.0675C186.019 79.133 185.918 79.2268 185.843 79.349C185.771 79.4711 185.735 79.6151 185.735 79.7809H185.13C185.13 79.5388 185.191 79.3184 185.313 79.1199C185.435 78.9213 185.607 78.7631 185.827 78.6453C186.05 78.5275 186.307 78.4686 186.599 78.4686C186.887 78.4686 187.139 78.5199 187.355 78.6224C187.571 78.7228 187.739 78.8733 187.859 79.074C187.979 79.2726 188.039 79.5202 188.039 79.8169C188.039 79.9369 188.011 80.0657 187.954 80.2031C187.9 80.3384 187.814 80.4649 187.696 80.5828C187.58 80.7006 187.43 80.7977 187.244 80.874C187.059 80.9482 186.836 80.9853 186.576 80.9853H186.059V80.6188ZM186.059 81.1162V80.7529H186.576C186.88 80.7529 187.131 80.7889 187.329 80.8609C187.528 80.9329 187.684 81.0289 187.797 81.1489C187.913 81.2689 187.994 81.4009 188.039 81.5449C188.087 81.6867 188.111 81.8286 188.111 81.9704C188.111 82.1929 188.073 82.3904 187.997 82.5627C187.923 82.7351 187.817 82.8813 187.679 83.0013C187.544 83.1213 187.385 83.2118 187.202 83.2729C187.018 83.334 186.819 83.3645 186.603 83.3645C186.395 83.3645 186.2 83.3351 186.017 83.2762C185.836 83.2173 185.675 83.1322 185.536 83.0209C185.396 82.9074 185.287 82.7689 185.208 82.6053C185.13 82.4394 185.091 82.2507 185.091 82.0391H185.696C185.696 82.2049 185.732 82.35 185.804 82.4744C185.878 82.5987 185.983 82.6958 186.118 82.7656C186.256 82.8333 186.417 82.8671 186.603 82.8671C186.788 82.8671 186.947 82.8354 187.08 82.7722C187.216 82.7067 187.319 82.6085 187.391 82.4776C187.466 82.3467 187.503 82.182 187.503 81.9835C187.503 81.7849 187.461 81.6224 187.378 81.4958C187.295 81.3671 187.178 81.2722 187.025 81.2111C186.874 81.1478 186.696 81.1162 186.491 81.1162H186.059Z" fill="#172755"/>
<rect x="206.49" y="66.804" width="36.8634" height="29.0439" fill="white"/>
<path d="M225.26 81.6955V82.1929H221.817V81.8362L223.95 78.5341H224.445L223.914 79.4897L222.504 81.6955H225.26ZM224.595 78.5341V83.2991H223.99V78.5341H224.595Z" fill="#172755"/>
<rect x="243.354" y="66.804" width="36.8634" height="29.0439" fill="white"/>
<path d="M259.668 81.0311L259.184 80.9067L259.423 78.5341H261.868V79.0937H259.937L259.793 80.3897C259.88 80.3395 259.99 80.2926 260.123 80.2489C260.259 80.2053 260.413 80.1835 260.588 80.1835C260.808 80.1835 261.006 80.2217 261.18 80.298C261.355 80.3722 261.503 80.4791 261.625 80.6188C261.75 80.7584 261.845 80.9264 261.91 81.1227C261.976 81.3191 262.008 81.5384 262.008 81.7806C262.008 82.0096 261.977 82.2202 261.913 82.4122C261.852 82.6042 261.76 82.7722 261.635 82.9162C261.511 83.058 261.354 83.1682 261.164 83.2467C260.976 83.3253 260.755 83.3645 260.5 83.3645C260.308 83.3645 260.125 83.3383 259.953 83.286C259.783 83.2314 259.63 83.1496 259.495 83.0405C259.362 82.9293 259.253 82.7918 259.168 82.6282C259.085 82.4624 259.032 82.2682 259.011 82.0456H259.587C259.613 82.2245 259.665 82.3751 259.744 82.4973C259.822 82.6194 259.925 82.7122 260.051 82.7754C260.18 82.8365 260.329 82.8671 260.5 82.8671C260.644 82.8671 260.771 82.842 260.883 82.7918C260.994 82.7416 261.088 82.6696 261.164 82.5758C261.24 82.482 261.298 82.3685 261.337 82.2355C261.379 82.1024 261.4 81.9529 261.4 81.7871C261.4 81.6366 261.379 81.4969 261.337 81.3682C261.296 81.2395 261.234 81.1271 261.151 81.0311C261.07 80.9351 260.971 80.8609 260.853 80.8086C260.735 80.754 260.6 80.7267 260.447 80.7267C260.244 80.7267 260.091 80.754 259.986 80.8086C259.883 80.8631 259.777 80.9373 259.668 81.0311Z" fill="#172755"/>
<rect x="280.217" y="66.804" width="36.8634" height="29.0439" fill="white"/>
<path d="M298.09 78.5275H298.142V79.0413H298.09C297.769 79.0413 297.501 79.0937 297.285 79.1984C297.069 79.301 296.897 79.4395 296.771 79.614C296.644 79.7864 296.553 79.9806 296.496 80.1966C296.441 80.4126 296.414 80.6318 296.414 80.8544V81.5547C296.414 81.7664 296.439 81.954 296.489 82.1176C296.54 82.2791 296.608 82.4154 296.695 82.5267C296.783 82.638 296.881 82.722 296.99 82.7787C297.101 82.8354 297.217 82.8638 297.337 82.8638C297.477 82.8638 297.601 82.8376 297.71 82.7853C297.819 82.7307 297.911 82.6554 297.985 82.5594C298.061 82.4613 298.119 82.3456 298.158 82.2125C298.198 82.0795 298.217 81.9333 298.217 81.774C298.217 81.6322 298.2 81.4958 298.165 81.3649C298.13 81.2318 298.077 81.114 298.005 81.0115C297.933 80.9067 297.842 80.8249 297.733 80.766C297.626 80.7049 297.498 80.6744 297.35 80.6744C297.182 80.6744 297.025 80.7158 296.879 80.7987C296.735 80.8795 296.616 80.9864 296.522 81.1195C296.43 81.2504 296.378 81.3933 296.365 81.5482L296.044 81.5449C296.075 81.3006 296.132 81.0922 296.214 80.9198C296.3 80.7453 296.404 80.6035 296.529 80.4944C296.655 80.3831 296.796 80.3024 296.951 80.2522C297.108 80.1998 297.274 80.1737 297.448 80.1737C297.686 80.1737 297.891 80.2184 298.063 80.3078C298.236 80.3973 298.378 80.5173 298.489 80.6678C298.6 80.8162 298.682 80.9842 298.734 81.1718C298.789 81.3573 298.816 81.5482 298.816 81.7446C298.816 81.9693 298.785 82.1798 298.721 82.3762C298.658 82.5725 298.563 82.7449 298.437 82.8933C298.312 83.0416 298.158 83.1573 297.975 83.2402C297.792 83.3231 297.579 83.3645 297.337 83.3645C297.079 83.3645 296.855 83.3122 296.663 83.2074C296.471 83.1005 296.312 82.9587 296.185 82.782C296.058 82.6053 295.964 82.4089 295.9 82.1929C295.837 81.9769 295.805 81.7576 295.805 81.5351V81.2504C295.805 80.9144 295.839 80.5849 295.907 80.262C295.974 79.9391 296.091 79.6468 296.257 79.385C296.425 79.1231 296.657 78.9148 296.954 78.7599C297.251 78.605 297.629 78.5275 298.09 78.5275Z" fill="#172755"/>
<rect x="59.0366" y="95.8479" width="36.8634" height="29.0439" fill="white"/>
<path d="M77.665 107.578V107.918L75.6916 112.343H75.0534L77.0235 108.075H74.4447V107.578H77.665Z" fill="#172755"/>
<rect x="95.8999" y="95.8479" width="36.8634" height="29.0439" fill="white"/>
<circle cx="114.052" cy="110.091" r="10.8915" fill="#0088F0"/>
<path d="M114.453 111.054C114.453 111.344 114.386 111.59 114.25 111.793C114.117 111.994 113.936 112.147 113.707 112.251C113.48 112.356 113.224 112.408 112.938 112.408C112.652 112.408 112.395 112.356 112.166 112.251C111.937 112.147 111.755 111.994 111.622 111.793C111.489 111.59 111.423 111.344 111.423 111.054C111.423 110.864 111.459 110.69 111.531 110.533C111.605 110.374 111.709 110.235 111.842 110.118C111.977 110 112.136 109.909 112.319 109.846C112.505 109.781 112.709 109.748 112.931 109.748C113.224 109.748 113.485 109.805 113.714 109.918C113.943 110.029 114.123 110.183 114.254 110.379C114.387 110.576 114.453 110.8 114.453 111.054ZM113.845 111.04C113.845 110.864 113.806 110.708 113.73 110.573C113.654 110.435 113.547 110.328 113.409 110.252C113.272 110.175 113.113 110.137 112.931 110.137C112.746 110.137 112.586 110.175 112.45 110.252C112.317 110.328 112.214 110.435 112.139 110.573C112.065 110.708 112.028 110.864 112.028 111.04C112.028 111.224 112.064 111.381 112.136 111.512C112.21 111.64 112.315 111.74 112.45 111.81C112.588 111.877 112.75 111.911 112.938 111.911C113.126 111.911 113.287 111.877 113.422 111.81C113.558 111.74 113.661 111.64 113.733 111.512C113.807 111.381 113.845 111.224 113.845 111.04ZM114.342 108.818C114.342 109.05 114.281 109.258 114.159 109.443C114.037 109.629 113.87 109.775 113.658 109.882C113.446 109.989 113.206 110.042 112.938 110.042C112.665 110.042 112.422 109.989 112.208 109.882C111.997 109.775 111.831 109.629 111.711 109.443C111.591 109.258 111.531 109.05 111.531 108.818C111.531 108.541 111.591 108.306 111.711 108.111C111.833 107.917 112 107.769 112.211 107.666C112.423 107.564 112.664 107.513 112.935 107.513C113.207 107.513 113.45 107.564 113.661 107.666C113.873 107.769 114.039 107.917 114.159 108.111C114.281 108.306 114.342 108.541 114.342 108.818ZM113.737 108.828C113.737 108.669 113.703 108.528 113.635 108.406C113.567 108.284 113.474 108.188 113.354 108.118C113.234 108.046 113.094 108.01 112.935 108.01C112.775 108.01 112.636 108.044 112.516 108.111C112.398 108.177 112.305 108.271 112.238 108.393C112.172 108.515 112.139 108.66 112.139 108.828C112.139 108.992 112.172 109.135 112.238 109.257C112.305 109.379 112.399 109.474 112.519 109.542C112.639 109.609 112.779 109.643 112.938 109.643C113.097 109.643 113.236 109.609 113.354 109.542C113.474 109.474 113.567 109.379 113.635 109.257C113.703 109.135 113.737 108.992 113.737 108.828Z" fill="#EEEEF7"/>
<rect x="132.763" y="95.8479" width="36.8634" height="29.0439" fill="white"/>
<circle cx="150.916" cy="110.091" r="10.8915" fill="#0088F0"/>
<path d="M148.914 111.836H148.977C149.326 111.836 149.609 111.787 149.827 111.688C150.046 111.59 150.214 111.458 150.331 111.292C150.449 111.127 150.53 110.94 150.574 110.733C150.617 110.523 150.639 110.309 150.639 110.088V109.358C150.639 109.142 150.614 108.95 150.564 108.782C150.516 108.614 150.448 108.474 150.361 108.36C150.276 108.247 150.179 108.161 150.07 108.102C149.961 108.043 149.845 108.013 149.723 108.013C149.583 108.013 149.458 108.042 149.346 108.098C149.237 108.153 149.145 108.23 149.068 108.331C148.994 108.431 148.937 108.549 148.898 108.684C148.859 108.819 148.839 108.967 148.839 109.126C148.839 109.268 148.857 109.405 148.891 109.538C148.926 109.671 148.98 109.791 149.052 109.898C149.124 110.005 149.213 110.09 149.32 110.154C149.429 110.215 149.557 110.245 149.703 110.245C149.838 110.245 149.965 110.219 150.083 110.167C150.203 110.112 150.309 110.039 150.4 109.947C150.494 109.854 150.568 109.748 150.623 109.63C150.679 109.512 150.712 109.389 150.721 109.26H151.009C151.009 109.441 150.973 109.62 150.901 109.797C150.831 109.971 150.733 110.131 150.606 110.275C150.48 110.419 150.331 110.534 150.161 110.622C149.991 110.707 149.806 110.749 149.605 110.749C149.369 110.749 149.165 110.703 148.993 110.612C148.821 110.52 148.679 110.398 148.567 110.245C148.458 110.093 148.377 109.922 148.322 109.735C148.27 109.545 148.243 109.353 148.243 109.159C148.243 108.932 148.275 108.719 148.338 108.521C148.402 108.322 148.495 108.147 148.62 107.997C148.744 107.844 148.898 107.725 149.081 107.64C149.267 107.555 149.481 107.513 149.723 107.513C149.995 107.513 150.228 107.567 150.42 107.676C150.612 107.785 150.768 107.931 150.888 108.115C151.01 108.298 151.099 108.504 151.156 108.733C151.213 108.962 151.241 109.198 151.241 109.44V109.659C151.241 109.906 151.225 110.157 151.192 110.412C151.162 110.665 151.102 110.907 151.012 111.139C150.925 111.37 150.797 111.577 150.629 111.76C150.461 111.942 150.242 112.086 149.971 112.192C149.703 112.297 149.371 112.35 148.977 112.35H148.914V111.836Z" fill="#EEEEF7"/>
<rect x="169.627" y="95.8479" width="36.8634" height="29.0439" fill="white"/>
<circle cx="187.779" cy="110.091" r="10.8915" fill="#0088F0"/>
<path d="M185.046 107.552V112.343H184.441V108.308L183.22 108.753V108.206L184.951 107.552H185.046ZM189.818 109.581V110.307C189.818 110.698 189.783 111.027 189.713 111.296C189.643 111.564 189.543 111.78 189.412 111.944C189.281 112.107 189.123 112.226 188.938 112.3C188.754 112.372 188.547 112.408 188.316 112.408C188.132 112.408 187.963 112.386 187.808 112.34C187.654 112.294 187.514 112.221 187.39 112.12C187.267 112.018 187.163 111.885 187.075 111.721C186.988 111.558 186.922 111.359 186.876 111.126C186.83 110.892 186.807 110.619 186.807 110.307V109.581C186.807 109.19 186.842 108.863 186.912 108.599C186.984 108.335 187.085 108.123 187.216 107.964C187.347 107.803 187.504 107.687 187.687 107.617C187.873 107.547 188.08 107.513 188.309 107.513C188.495 107.513 188.665 107.535 188.82 107.581C188.977 107.625 189.116 107.696 189.239 107.794C189.361 107.89 189.464 108.019 189.55 108.18C189.637 108.339 189.703 108.535 189.749 108.766C189.795 108.997 189.818 109.269 189.818 109.581ZM189.209 110.406V109.479C189.209 109.266 189.196 109.078 189.17 108.917C189.146 108.753 189.11 108.613 189.062 108.498C189.014 108.382 188.953 108.288 188.879 108.216C188.807 108.144 188.723 108.092 188.627 108.059C188.533 108.024 188.427 108.007 188.309 108.007C188.165 108.007 188.038 108.034 187.926 108.089C187.815 108.141 187.721 108.225 187.645 108.341C187.571 108.456 187.514 108.608 187.475 108.795C187.435 108.983 187.416 109.211 187.416 109.479V110.406C187.416 110.619 187.428 110.808 187.452 110.972C187.478 111.135 187.516 111.277 187.566 111.397C187.616 111.515 187.678 111.612 187.75 111.688C187.822 111.765 187.904 111.822 187.998 111.859C188.094 111.894 188.2 111.911 188.316 111.911C188.464 111.911 188.594 111.883 188.705 111.826C188.816 111.769 188.909 111.681 188.983 111.561C189.06 111.439 189.116 111.283 189.154 111.093C189.191 110.901 189.209 110.672 189.209 110.406Z" fill="#EEEEF7"/>
<rect x="206.49" y="95.8479" width="36.8634" height="29.0439" fill="white"/>
<path d="M221.91 107.552V112.343H221.304V108.308L220.083 108.753V108.206L221.815 107.552H221.91ZM225.68 107.552V112.343H225.074V108.308L223.854 108.753V108.206L225.585 107.552H225.68Z" fill="#172755"/>
<rect x="243.354" y="95.8479" width="36.8634" height="29.0439" fill="white"/>
<path d="M258.773 107.552V112.343H258.168V108.308L256.947 108.753V108.206L258.678 107.552H258.773ZM263.676 111.846V112.343H260.557V111.908L262.118 110.17C262.31 109.956 262.458 109.775 262.563 109.627C262.67 109.476 262.744 109.342 262.785 109.224C262.829 109.104 262.851 108.982 262.851 108.858C262.851 108.701 262.818 108.559 262.753 108.432C262.689 108.303 262.596 108.201 262.471 108.125C262.347 108.048 262.196 108.01 262.02 108.01C261.808 108.01 261.631 108.051 261.489 108.134C261.35 108.215 261.245 108.329 261.175 108.475C261.105 108.621 261.071 108.789 261.071 108.979H260.465C260.465 108.71 260.524 108.465 260.642 108.242C260.76 108.02 260.934 107.843 261.165 107.712C261.397 107.579 261.681 107.513 262.02 107.513C262.321 107.513 262.578 107.566 262.792 107.673C263.006 107.778 263.169 107.926 263.283 108.118C263.399 108.308 263.456 108.53 263.456 108.786C263.456 108.925 263.432 109.067 263.384 109.211C263.339 109.353 263.274 109.495 263.191 109.637C263.111 109.778 263.016 109.918 262.907 110.055C262.8 110.193 262.685 110.328 262.563 110.461L261.287 111.846H263.676Z" fill="#172755"/>
<rect x="280.217" y="95.8479" width="36.8634" height="29.0439" fill="white"/>
<path d="M295.637 107.552V112.343H295.031V108.308L293.811 108.753V108.206L295.542 107.552H295.637ZM298.301 109.663H298.733C298.944 109.663 299.119 109.628 299.256 109.558C299.396 109.486 299.5 109.389 299.567 109.267C299.637 109.142 299.672 109.003 299.672 108.848C299.672 108.665 299.641 108.511 299.58 108.386C299.519 108.262 299.428 108.168 299.305 108.105C299.183 108.042 299.028 108.01 298.841 108.01C298.67 108.01 298.52 108.044 298.389 108.111C298.26 108.177 298.159 108.271 298.085 108.393C298.013 108.515 297.977 108.659 297.977 108.825H297.371C297.371 108.583 297.432 108.362 297.554 108.164C297.677 107.965 297.848 107.807 298.068 107.689C298.291 107.571 298.548 107.513 298.841 107.513C299.129 107.513 299.381 107.564 299.597 107.666C299.813 107.767 299.981 107.917 300.101 108.118C300.221 108.317 300.281 108.564 300.281 108.861C300.281 108.981 300.252 109.11 300.195 109.247C300.141 109.382 300.055 109.509 299.937 109.627C299.821 109.745 299.671 109.842 299.485 109.918C299.3 109.992 299.077 110.029 298.818 110.029H298.301V109.663ZM298.301 110.16V109.797H298.818C299.121 109.797 299.372 109.833 299.57 109.905C299.769 109.977 299.925 110.073 300.038 110.193C300.154 110.313 300.235 110.445 300.281 110.589C300.329 110.731 300.353 110.872 300.353 111.014C300.353 111.237 300.314 111.434 300.238 111.607C300.164 111.779 300.058 111.925 299.921 112.045C299.785 112.165 299.626 112.256 299.443 112.317C299.26 112.378 299.06 112.408 298.844 112.408C298.637 112.408 298.441 112.379 298.258 112.32C298.077 112.261 297.917 112.176 297.777 112.065C297.637 111.951 297.528 111.813 297.45 111.649C297.371 111.483 297.332 111.295 297.332 111.083H297.937C297.937 111.249 297.973 111.394 298.045 111.518C298.12 111.643 298.224 111.74 298.36 111.81C298.497 111.877 298.658 111.911 298.844 111.911C299.029 111.911 299.189 111.879 299.322 111.816C299.457 111.751 299.561 111.652 299.633 111.522C299.707 111.391 299.744 111.226 299.744 111.027C299.744 110.829 299.702 110.666 299.62 110.54C299.537 110.411 299.419 110.316 299.266 110.255C299.116 110.192 298.938 110.16 298.733 110.16H298.301Z" fill="#172755"/>
<rect x="59.0366" y="124.892" width="36.8634" height="29.0439" fill="white"/>
<path d="M74.456 136.596V141.387H73.8505V137.352L72.6298 137.797V137.25L74.3611 136.596H74.456ZM79.4566 139.783V140.281H76.0138V139.924L78.1476 136.622H78.6417L78.1116 137.578L76.701 139.783H79.4566ZM78.7923 136.622V141.387H78.1868V136.622H78.7923Z" fill="#172755"/>
<rect x="95.8999" y="124.892" width="36.8634" height="29.0439" fill="white"/>
<path d="M111.32 136.596V141.387H110.714V137.352L109.493 137.797V137.25L111.225 136.596H111.32ZM113.866 139.119L113.381 138.995L113.62 136.622H116.065V137.182H114.134L113.99 138.478C114.077 138.427 114.187 138.38 114.321 138.337C114.456 138.293 114.611 138.271 114.785 138.271C115.006 138.271 115.203 138.31 115.378 138.386C115.552 138.46 115.701 138.567 115.823 138.707C115.947 138.846 116.042 139.014 116.107 139.211C116.173 139.407 116.206 139.626 116.206 139.868C116.206 140.098 116.174 140.308 116.111 140.5C116.05 140.692 115.957 140.86 115.833 141.004C115.708 141.146 115.551 141.256 115.361 141.335C115.174 141.413 114.952 141.452 114.697 141.452C114.505 141.452 114.323 141.426 114.15 141.374C113.98 141.319 113.827 141.238 113.692 141.128C113.559 141.017 113.45 140.88 113.365 140.716C113.282 140.55 113.23 140.356 113.208 140.134H113.784C113.81 140.312 113.862 140.463 113.941 140.585C114.019 140.707 114.122 140.8 114.249 140.863C114.377 140.924 114.527 140.955 114.697 140.955C114.841 140.955 114.969 140.93 115.08 140.88C115.191 140.83 115.285 140.758 115.361 140.664C115.438 140.57 115.495 140.456 115.535 140.323C115.576 140.19 115.597 140.041 115.597 139.875C115.597 139.724 115.576 139.585 115.535 139.456C115.493 139.327 115.431 139.215 115.348 139.119C115.267 139.023 115.168 138.949 115.05 138.896C114.933 138.842 114.797 138.815 114.645 138.815C114.442 138.815 114.288 138.842 114.183 138.896C114.081 138.951 113.975 139.025 113.866 139.119Z" fill="#172755"/>
<rect x="132.763" y="124.892" width="36.8634" height="29.0439" fill="white"/>
<path d="M148.183 136.596V141.387H147.577V137.352L146.357 137.797V137.25L148.088 136.596H148.183ZM152.287 136.615H152.339V137.129H152.287C151.966 137.129 151.698 137.182 151.482 137.286C151.266 137.389 151.094 137.527 150.968 137.702C150.841 137.874 150.75 138.068 150.693 138.284C150.638 138.5 150.611 138.72 150.611 138.942V139.643C150.611 139.854 150.636 140.042 150.686 140.206C150.737 140.367 150.805 140.503 150.893 140.615C150.98 140.726 151.078 140.81 151.187 140.867C151.298 140.923 151.414 140.952 151.534 140.952C151.674 140.952 151.798 140.926 151.907 140.873C152.016 140.819 152.108 140.743 152.182 140.647C152.258 140.549 152.316 140.434 152.355 140.3C152.395 140.167 152.414 140.021 152.414 139.862C152.414 139.72 152.397 139.584 152.362 139.453C152.327 139.32 152.274 139.202 152.202 139.099C152.13 138.995 152.039 138.913 151.93 138.854C151.823 138.793 151.695 138.762 151.547 138.762C151.379 138.762 151.222 138.804 151.076 138.887C150.932 138.967 150.813 139.074 150.719 139.207C150.627 139.338 150.575 139.481 150.562 139.636L150.241 139.633C150.272 139.388 150.329 139.18 150.411 139.008C150.497 138.833 150.601 138.691 150.726 138.582C150.852 138.471 150.993 138.39 151.148 138.34C151.305 138.288 151.471 138.262 151.645 138.262C151.883 138.262 152.088 138.306 152.261 138.396C152.433 138.485 152.575 138.605 152.686 138.756C152.797 138.904 152.879 139.072 152.931 139.26C152.986 139.445 153.013 139.636 153.013 139.832C153.013 140.057 152.982 140.268 152.918 140.464C152.855 140.66 152.76 140.833 152.634 140.981C152.509 141.13 152.355 141.245 152.172 141.328C151.989 141.411 151.776 141.452 151.534 141.452C151.277 141.452 151.052 141.4 150.86 141.295C150.668 141.188 150.509 141.047 150.382 140.87C150.255 140.693 150.161 140.497 150.097 140.281C150.034 140.065 150.002 139.846 150.002 139.623V139.338C150.002 139.002 150.036 138.673 150.104 138.35C150.171 138.027 150.288 137.735 150.454 137.473C150.622 137.211 150.854 137.003 151.151 136.848C151.448 136.693 151.826 136.615 152.287 136.615Z" fill="#172755"/>
<rect x="169.627" y="124.892" width="36.8634" height="29.0439" fill="white"/>
<path d="M185.046 136.596V141.387H184.441V137.352L183.22 137.797V137.25L184.951 136.596H185.046ZM189.906 136.622V136.962L187.933 141.387H187.295L189.265 137.119H186.686V136.622H189.906Z" fill="#172755"/>
<rect x="206.49" y="124.892" width="36.8634" height="29.0439" fill="white"/>
<circle cx="224.643" cy="139.135" r="10.8915" fill="#EF2A82"/>
<path d="M221.91 136.596V141.387H221.304V137.352L220.083 137.797V137.25L221.815 136.596H221.91ZM226.694 140.098C226.694 140.388 226.627 140.634 226.491 140.837C226.358 141.038 226.177 141.191 225.948 141.295C225.721 141.4 225.465 141.452 225.179 141.452C224.893 141.452 224.636 141.4 224.407 141.295C224.178 141.191 223.996 141.038 223.863 140.837C223.73 140.634 223.664 140.388 223.664 140.098C223.664 139.908 223.7 139.734 223.772 139.577C223.846 139.418 223.95 139.279 224.083 139.162C224.218 139.044 224.377 138.953 224.56 138.89C224.746 138.824 224.95 138.792 225.172 138.792C225.465 138.792 225.726 138.848 225.955 138.962C226.184 139.073 226.364 139.227 226.495 139.423C226.628 139.62 226.694 139.844 226.694 140.098ZM226.086 140.084C226.086 139.908 226.047 139.752 225.971 139.616C225.895 139.479 225.788 139.372 225.65 139.296C225.513 139.219 225.354 139.181 225.172 139.181C224.987 139.181 224.827 139.219 224.691 139.296C224.558 139.372 224.455 139.479 224.38 139.616C224.306 139.752 224.269 139.908 224.269 140.084C224.269 140.268 224.305 140.425 224.377 140.556C224.451 140.684 224.556 140.784 224.691 140.854C224.829 140.921 224.991 140.955 225.179 140.955C225.367 140.955 225.528 140.921 225.663 140.854C225.799 140.784 225.902 140.684 225.974 140.556C226.048 140.425 226.086 140.268 226.086 140.084ZM226.583 137.862C226.583 138.094 226.522 138.302 226.4 138.487C226.278 138.673 226.111 138.819 225.899 138.926C225.687 139.033 225.447 139.086 225.179 139.086C224.906 139.086 224.663 139.033 224.449 138.926C224.238 138.819 224.072 138.673 223.952 138.487C223.832 138.302 223.772 138.094 223.772 137.862C223.772 137.585 223.832 137.35 223.952 137.155C224.074 136.961 224.241 136.813 224.452 136.71C224.664 136.608 224.905 136.556 225.176 136.556C225.448 136.556 225.691 136.608 225.902 136.71C226.114 136.813 226.28 136.961 226.4 137.155C226.522 137.35 226.583 137.585 226.583 137.862ZM225.978 137.872C225.978 137.713 225.944 137.572 225.876 137.45C225.808 137.328 225.715 137.232 225.595 137.162C225.475 137.09 225.335 137.054 225.176 137.054C225.016 137.054 224.877 137.088 224.757 137.155C224.639 137.221 224.546 137.315 224.479 137.437C224.413 137.559 224.38 137.704 224.38 137.872C224.38 138.036 224.413 138.179 224.479 138.301C224.546 138.423 224.64 138.518 224.76 138.586C224.88 138.653 225.02 138.687 225.179 138.687C225.338 138.687 225.477 138.653 225.595 138.586C225.715 138.518 225.808 138.423 225.876 138.301C225.944 138.179 225.978 138.036 225.978 137.872Z" fill="#EEEEF7"/>
<rect x="243.354" y="124.892" width="36.8634" height="29.0439" fill="white"/>
<path d="M258.773 136.596V141.387H258.168V137.352L256.947 137.797V137.25L258.678 136.596H258.773ZM261.156 140.88H261.218C261.567 140.88 261.851 140.831 262.069 140.732C262.287 140.634 262.455 140.502 262.573 140.336C262.691 140.171 262.771 139.984 262.815 139.777C262.859 139.567 262.88 139.352 262.88 139.132V138.402C262.88 138.186 262.855 137.994 262.805 137.826C262.757 137.658 262.689 137.518 262.602 137.404C262.517 137.291 262.42 137.204 262.311 137.146C262.202 137.087 262.086 137.057 261.964 137.057C261.824 137.057 261.699 137.086 261.588 137.142C261.479 137.197 261.386 137.274 261.309 137.375C261.235 137.475 261.179 137.593 261.139 137.728C261.1 137.863 261.08 138.011 261.08 138.17C261.08 138.312 261.098 138.449 261.133 138.582C261.168 138.715 261.221 138.835 261.293 138.942C261.365 139.049 261.455 139.134 261.561 139.198C261.671 139.259 261.798 139.289 261.944 139.289C262.08 139.289 262.206 139.263 262.324 139.211C262.444 139.156 262.55 139.083 262.641 138.991C262.735 138.898 262.809 138.792 262.864 138.674C262.921 138.556 262.953 138.433 262.962 138.304H263.25C263.25 138.485 263.214 138.664 263.142 138.841C263.072 139.015 262.974 139.175 262.848 139.319C262.721 139.463 262.573 139.578 262.403 139.666C262.232 139.751 262.047 139.793 261.846 139.793C261.611 139.793 261.407 139.747 261.234 139.656C261.062 139.564 260.92 139.442 260.809 139.289C260.7 139.136 260.618 138.966 260.563 138.779C260.511 138.589 260.485 138.397 260.485 138.203C260.485 137.976 260.516 137.763 260.58 137.564C260.643 137.366 260.737 137.191 260.861 137.041C260.985 136.888 261.139 136.769 261.323 136.684C261.508 136.599 261.722 136.556 261.964 136.556C262.237 136.556 262.469 136.611 262.661 136.72C262.853 136.829 263.009 136.975 263.129 137.159C263.251 137.342 263.341 137.548 263.397 137.777C263.454 138.006 263.483 138.242 263.483 138.484V138.703C263.483 138.95 263.466 139.201 263.433 139.456C263.403 139.709 263.343 139.951 263.253 140.183C263.166 140.414 263.039 140.621 262.871 140.804C262.703 140.986 262.483 141.13 262.213 141.236C261.944 141.341 261.613 141.394 261.218 141.394H261.156V140.88Z" fill="#172755"/>
<rect x="280.217" y="124.892" width="36.8634" height="29.0439" fill="white"/>
<path d="M296.769 140.89V141.387H293.65V140.952L295.211 139.214C295.403 139 295.552 138.819 295.656 138.671C295.763 138.52 295.837 138.386 295.879 138.268C295.922 138.148 295.944 138.026 295.944 137.902C295.944 137.744 295.912 137.603 295.846 137.476C295.783 137.347 295.689 137.245 295.565 137.168C295.44 137.092 295.29 137.054 295.113 137.054C294.901 137.054 294.725 137.095 294.583 137.178C294.443 137.259 294.338 137.372 294.269 137.519C294.199 137.665 294.164 137.833 294.164 138.023H293.559C293.559 137.754 293.617 137.509 293.735 137.286C293.853 137.064 294.028 136.887 294.259 136.756C294.49 136.623 294.775 136.556 295.113 136.556C295.414 136.556 295.672 136.61 295.885 136.717C296.099 136.822 296.263 136.97 296.376 137.162C296.492 137.352 296.55 137.574 296.55 137.83C296.55 137.969 296.526 138.111 296.478 138.255C296.432 138.397 296.368 138.539 296.285 138.68C296.204 138.822 296.109 138.962 296 139.099C295.893 139.237 295.778 139.372 295.656 139.505L294.38 140.89H296.769ZM300.408 138.625V139.351C300.408 139.742 300.373 140.071 300.303 140.34C300.234 140.608 300.133 140.824 300.002 140.988C299.871 141.151 299.713 141.27 299.528 141.344C299.345 141.416 299.137 141.452 298.906 141.452C298.723 141.452 298.554 141.43 298.399 141.384C298.244 141.338 298.104 141.265 297.98 141.164C297.858 141.062 297.753 140.929 297.666 140.765C297.578 140.602 297.512 140.403 297.466 140.17C297.42 139.936 297.397 139.663 297.397 139.351V138.625C297.397 138.234 297.432 137.907 297.502 137.643C297.574 137.379 297.676 137.167 297.806 137.008C297.937 136.847 298.094 136.731 298.278 136.661C298.463 136.591 298.67 136.556 298.9 136.556C299.085 136.556 299.255 136.579 299.41 136.625C299.567 136.669 299.707 136.74 299.829 136.838C299.951 136.934 300.055 137.063 300.14 137.224C300.227 137.383 300.294 137.579 300.339 137.81C300.385 138.041 300.408 138.313 300.408 138.625ZM299.799 139.45V138.523C299.799 138.31 299.786 138.122 299.76 137.96C299.736 137.797 299.7 137.657 299.652 137.542C299.604 137.426 299.543 137.332 299.469 137.26C299.397 137.188 299.313 137.136 299.217 137.103C299.123 137.068 299.017 137.051 298.9 137.051C298.756 137.051 298.628 137.078 298.517 137.132C298.405 137.185 298.312 137.269 298.235 137.384C298.161 137.5 298.104 137.652 298.065 137.839C298.026 138.027 298.006 138.255 298.006 138.523V139.45C298.006 139.663 298.018 139.852 298.042 140.016C298.068 140.179 298.106 140.321 298.157 140.441C298.207 140.559 298.268 140.656 298.34 140.732C298.412 140.809 298.495 140.866 298.589 140.903C298.685 140.938 298.79 140.955 298.906 140.955C299.054 140.955 299.184 140.927 299.296 140.87C299.407 140.813 299.5 140.725 299.574 140.605C299.65 140.483 299.707 140.327 299.744 140.137C299.781 139.945 299.799 139.716 299.799 139.45Z" fill="#172755"/>
<rect x="59.0366" y="153.936" width="36.8634" height="29.0439" fill="white"/>
<path d="M75.5883 169.933V170.431H72.4695V169.996L74.0305 168.258C74.2225 168.044 74.3709 167.863 74.4756 167.714C74.5825 167.564 74.6567 167.43 74.6982 167.312C74.7418 167.192 74.7636 167.07 74.7636 166.945C74.7636 166.788 74.7309 166.646 74.6654 166.52C74.6022 166.391 74.5084 166.289 74.384 166.212C74.2596 166.136 74.1091 166.098 73.9324 166.098C73.7207 166.098 73.544 166.139 73.4022 166.222C73.2626 166.303 73.1578 166.416 73.088 166.562C73.0182 166.709 72.9833 166.877 72.9833 167.066H72.3778C72.3778 166.798 72.4367 166.553 72.5546 166.33C72.6724 166.108 72.8469 165.931 73.0782 165.8C73.3095 165.667 73.5942 165.6 73.9324 165.6C74.2334 165.6 74.4909 165.654 74.7047 165.761C74.9185 165.865 75.0822 166.014 75.1956 166.206C75.3112 166.396 75.3691 166.618 75.3691 166.873C75.3691 167.013 75.3451 167.155 75.2971 167.299C75.2513 167.441 75.1869 167.582 75.104 167.724C75.0233 167.866 74.9283 168.006 74.8193 168.143C74.7123 168.281 74.5978 168.416 74.4756 168.549L73.1993 169.933H75.5883ZM78.2261 165.64V170.431H77.6207V166.396L76.4 166.841V166.294L78.1312 165.64H78.2261Z" fill="#172755"/>
<rect x="95.8999" y="153.936" width="36.8634" height="29.0439" fill="white"/>
<path d="M112.452 169.933V170.431H109.333V169.996L110.894 168.258C111.086 168.044 111.234 167.863 111.339 167.714C111.446 167.564 111.52 167.43 111.562 167.312C111.605 167.192 111.627 167.07 111.627 166.945C111.627 166.788 111.594 166.646 111.529 166.52C111.466 166.391 111.372 166.289 111.248 166.212C111.123 166.136 110.973 166.098 110.796 166.098C110.584 166.098 110.408 166.139 110.266 166.222C110.126 166.303 110.021 166.416 109.952 166.562C109.882 166.709 109.847 166.877 109.847 167.066H109.241C109.241 166.798 109.3 166.553 109.418 166.33C109.536 166.108 109.71 165.931 109.942 165.8C110.173 165.667 110.458 165.6 110.796 165.6C111.097 165.6 111.354 165.654 111.568 165.761C111.782 165.865 111.946 166.014 112.059 166.206C112.175 166.396 112.233 166.618 112.233 166.873C112.233 167.013 112.209 167.155 112.161 167.299C112.115 167.441 112.05 167.582 111.968 167.724C111.887 167.866 111.792 168.006 111.683 168.143C111.576 168.281 111.461 168.416 111.339 168.549L110.063 169.933H112.452ZM116.222 169.933V170.431H113.103V169.996L114.664 168.258C114.856 168.044 115.005 167.863 115.109 167.714C115.216 167.564 115.29 167.43 115.332 167.312C115.375 167.192 115.397 167.07 115.397 166.945C115.397 166.788 115.365 166.646 115.299 166.52C115.236 166.391 115.142 166.289 115.018 166.212C114.893 166.136 114.743 166.098 114.566 166.098C114.354 166.098 114.178 166.139 114.036 166.222C113.896 166.303 113.791 166.416 113.722 166.562C113.652 166.709 113.617 166.877 113.617 167.066H113.011C113.011 166.798 113.07 166.553 113.188 166.33C113.306 166.108 113.481 165.931 113.712 165.8C113.943 165.667 114.228 165.6 114.566 165.6C114.867 165.6 115.125 165.654 115.338 165.761C115.552 165.865 115.716 166.014 115.829 166.206C115.945 166.396 116.003 166.618 116.003 166.873C116.003 167.013 115.979 167.155 115.931 167.299C115.885 167.441 115.821 167.582 115.738 167.724C115.657 167.866 115.562 168.006 115.453 168.143C115.346 168.281 115.231 168.416 115.109 168.549L113.833 169.933H116.222Z" fill="#172755"/>
<rect x="132.763" y="153.936" width="36.8634" height="29.0439" fill="white"/>
<path d="M149.315 169.933V170.431H146.196V169.996L147.757 168.258C147.949 168.044 148.098 167.863 148.202 167.714C148.309 167.564 148.384 167.43 148.425 167.312C148.469 167.192 148.49 167.07 148.49 166.945C148.49 166.788 148.458 166.646 148.392 166.52C148.329 166.391 148.235 166.289 148.111 166.212C147.986 166.136 147.836 166.098 147.659 166.098C147.448 166.098 147.271 166.139 147.129 166.222C146.989 166.303 146.885 166.416 146.815 166.562C146.745 166.709 146.71 166.877 146.71 167.066H146.105C146.105 166.798 146.164 166.553 146.281 166.33C146.399 166.108 146.574 165.931 146.805 165.8C147.036 165.667 147.321 165.6 147.659 165.6C147.96 165.6 148.218 165.654 148.432 165.761C148.645 165.865 148.809 166.014 148.922 166.206C149.038 166.396 149.096 166.618 149.096 166.873C149.096 167.013 149.072 167.155 149.024 167.299C148.978 167.441 148.914 167.582 148.831 167.724C148.75 167.866 148.655 168.006 148.546 168.143C148.439 168.281 148.325 168.416 148.202 168.549L146.926 169.933H149.315ZM150.847 167.75H151.279C151.49 167.75 151.665 167.716 151.802 167.646C151.942 167.574 152.046 167.477 152.113 167.354C152.183 167.23 152.218 167.09 152.218 166.936C152.218 166.752 152.187 166.598 152.126 166.474C152.065 166.35 151.974 166.256 151.851 166.193C151.729 166.129 151.574 166.098 151.387 166.098C151.217 166.098 151.066 166.132 150.935 166.199C150.806 166.265 150.705 166.358 150.631 166.481C150.559 166.603 150.523 166.747 150.523 166.913H149.917C149.917 166.67 149.978 166.45 150.101 166.252C150.223 166.053 150.394 165.895 150.614 165.777C150.837 165.659 151.094 165.6 151.387 165.6C151.675 165.6 151.927 165.652 152.143 165.754C152.359 165.854 152.527 166.005 152.647 166.206C152.767 166.404 152.827 166.652 152.827 166.949C152.827 167.069 152.798 167.197 152.742 167.335C152.687 167.47 152.601 167.597 152.483 167.714C152.367 167.832 152.217 167.929 152.031 168.006C151.846 168.08 151.623 168.117 151.364 168.117H150.847V167.75ZM150.847 168.248V167.885H151.364C151.667 167.885 151.918 167.921 152.117 167.993C152.315 168.065 152.471 168.161 152.585 168.281C152.7 168.401 152.781 168.533 152.827 168.677C152.875 168.818 152.899 168.96 152.899 169.102C152.899 169.325 152.861 169.522 152.784 169.694C152.71 169.867 152.604 170.013 152.467 170.133C152.331 170.253 152.172 170.344 151.989 170.405C151.806 170.466 151.606 170.496 151.39 170.496C151.183 170.496 150.987 170.467 150.804 170.408C150.623 170.349 150.463 170.264 150.323 170.153C150.183 170.039 150.074 169.901 149.996 169.737C149.917 169.571 149.878 169.382 149.878 169.171H150.483C150.483 169.337 150.519 169.482 150.591 169.606C150.666 169.73 150.77 169.828 150.906 169.897C151.043 169.965 151.205 169.999 151.39 169.999C151.575 169.999 151.735 169.967 151.868 169.904C152.003 169.838 152.107 169.74 152.179 169.609C152.253 169.478 152.29 169.314 152.29 169.115C152.29 168.917 152.249 168.754 152.166 168.628C152.083 168.499 151.965 168.404 151.812 168.343C151.662 168.28 151.484 168.248 151.279 168.248H150.847Z" fill="#172755"/>
<rect x="169.627" y="153.936" width="36.8634" height="29.0439" fill="white"/>
<path d="M186.179 169.933V170.431H183.06V169.996L184.621 168.258C184.813 168.044 184.961 167.863 185.066 167.714C185.173 167.564 185.247 167.43 185.289 167.312C185.332 167.192 185.354 167.07 185.354 166.945C185.354 166.788 185.321 166.646 185.256 166.52C185.193 166.391 185.099 166.289 184.974 166.212C184.85 166.136 184.699 166.098 184.523 166.098C184.311 166.098 184.134 166.139 183.993 166.222C183.853 166.303 183.748 166.416 183.678 166.562C183.609 166.709 183.574 166.877 183.574 167.066H182.968C182.968 166.798 183.027 166.553 183.145 166.33C183.263 166.108 183.437 165.931 183.669 165.8C183.9 165.667 184.185 165.6 184.523 165.6C184.824 165.6 185.081 165.654 185.295 165.761C185.509 165.865 185.672 166.014 185.786 166.206C185.902 166.396 185.959 166.618 185.959 166.873C185.959 167.013 185.935 167.155 185.887 167.299C185.842 167.441 185.777 167.582 185.694 167.724C185.614 167.866 185.519 168.006 185.41 168.143C185.303 168.281 185.188 168.416 185.066 168.549L183.79 169.933H186.179ZM190.047 168.827V169.325H186.604V168.968L188.738 165.666H189.232L188.702 166.621L187.291 168.827H190.047ZM189.383 165.666V170.431H188.777V165.666H189.383Z" fill="#172755"/>
<rect x="206.49" y="153.936" width="36.8634" height="29.0439" fill="white"/>
<path d="M223.042 169.933V170.431H219.923V169.996L221.484 168.258C221.676 168.044 221.825 167.863 221.929 167.714C222.036 167.564 222.11 167.43 222.152 167.312C222.195 167.192 222.217 167.07 222.217 166.945C222.217 166.788 222.185 166.646 222.119 166.52C222.056 166.391 221.962 166.289 221.838 166.212C221.713 166.136 221.563 166.098 221.386 166.098C221.174 166.098 220.998 166.139 220.856 166.222C220.716 166.303 220.611 166.416 220.542 166.562C220.472 166.709 220.437 166.877 220.437 167.066H219.831C219.831 166.798 219.89 166.553 220.008 166.33C220.126 166.108 220.301 165.931 220.532 165.8C220.763 165.667 221.048 165.6 221.386 165.6C221.687 165.6 221.945 165.654 222.158 165.761C222.372 165.865 222.536 166.014 222.649 166.206C222.765 166.396 222.823 166.618 222.823 166.873C222.823 167.013 222.799 167.155 222.751 167.299C222.705 167.441 222.641 167.582 222.558 167.724C222.477 167.866 222.382 168.006 222.273 168.143C222.166 168.281 222.051 168.416 221.929 168.549L220.653 169.933H223.042ZM224.456 168.163L223.971 168.038L224.21 165.666H226.655V166.225H224.724L224.58 167.521C224.667 167.471 224.778 167.424 224.911 167.381C225.046 167.337 225.201 167.315 225.375 167.315C225.596 167.315 225.793 167.353 225.968 167.43C226.142 167.504 226.291 167.611 226.413 167.75C226.537 167.89 226.632 168.058 226.698 168.254C226.763 168.451 226.796 168.67 226.796 168.912C226.796 169.141 226.764 169.352 226.701 169.544C226.64 169.736 226.547 169.904 226.423 170.048C226.298 170.19 226.141 170.3 225.951 170.378C225.764 170.457 225.542 170.496 225.287 170.496C225.095 170.496 224.913 170.47 224.74 170.418C224.57 170.363 224.418 170.281 224.282 170.172C224.149 170.061 224.04 169.924 223.955 169.76C223.872 169.594 223.82 169.4 223.798 169.177H224.374C224.4 169.356 224.452 169.507 224.531 169.629C224.61 169.751 224.712 169.844 224.839 169.907C224.967 169.968 225.117 169.999 225.287 169.999C225.431 169.999 225.559 169.974 225.67 169.924C225.781 169.873 225.875 169.801 225.951 169.708C226.028 169.614 226.086 169.5 226.125 169.367C226.166 169.234 226.187 169.085 226.187 168.919C226.187 168.768 226.166 168.629 226.125 168.5C226.083 168.371 226.021 168.259 225.938 168.163C225.858 168.067 225.758 167.993 225.64 167.94C225.523 167.886 225.387 167.858 225.235 167.858C225.032 167.858 224.878 167.886 224.773 167.94C224.671 167.995 224.565 168.069 224.456 168.163Z" fill="#172755"/>
<rect x="243.354" y="153.936" width="36.8634" height="29.0439" fill="white"/>
<path d="M259.905 169.933V170.431H256.787V169.996L258.348 168.258C258.54 168.044 258.688 167.863 258.793 167.714C258.9 167.564 258.974 167.43 259.015 167.312C259.059 167.192 259.081 167.07 259.081 166.945C259.081 166.788 259.048 166.646 258.983 166.52C258.919 166.391 258.825 166.289 258.701 166.212C258.577 166.136 258.426 166.098 258.25 166.098C258.038 166.098 257.861 166.139 257.719 166.222C257.58 166.303 257.475 166.416 257.405 166.562C257.335 166.709 257.3 166.877 257.3 167.066H256.695C256.695 166.798 256.754 166.553 256.872 166.33C256.99 166.108 257.164 165.931 257.395 165.8C257.627 165.667 257.911 165.6 258.25 165.6C258.551 165.6 258.808 165.654 259.022 165.761C259.236 165.865 259.399 166.014 259.513 166.206C259.628 166.396 259.686 166.618 259.686 166.873C259.686 167.013 259.662 167.155 259.614 167.299C259.568 167.441 259.504 167.582 259.421 167.724C259.34 167.866 259.245 168.006 259.136 168.143C259.029 168.281 258.915 168.416 258.793 168.549L257.516 169.933H259.905ZM262.877 165.659H262.929V166.173H262.877C262.556 166.173 262.288 166.225 262.072 166.33C261.856 166.433 261.685 166.571 261.558 166.746C261.432 166.918 261.34 167.112 261.283 167.328C261.229 167.544 261.201 167.764 261.201 167.986V168.686C261.201 168.898 261.227 169.086 261.277 169.249C261.327 169.411 261.396 169.547 261.483 169.658C261.57 169.77 261.668 169.854 261.777 169.91C261.889 169.967 262.004 169.996 262.124 169.996C262.264 169.996 262.388 169.969 262.497 169.917C262.607 169.862 262.698 169.787 262.772 169.691C262.849 169.593 262.907 169.477 262.946 169.344C262.985 169.211 263.005 169.065 263.005 168.906C263.005 168.764 262.987 168.628 262.952 168.497C262.917 168.364 262.864 168.246 262.792 168.143C262.72 168.038 262.629 167.957 262.52 167.898C262.413 167.837 262.286 167.806 262.137 167.806C261.969 167.806 261.812 167.848 261.666 167.93C261.522 168.011 261.403 168.118 261.309 168.251C261.218 168.382 261.165 168.525 261.152 168.68L260.832 168.677C260.862 168.432 260.919 168.224 261.002 168.052C261.087 167.877 261.192 167.735 261.316 167.626C261.443 167.515 261.583 167.434 261.738 167.384C261.895 167.332 262.061 167.305 262.236 167.305C262.473 167.305 262.679 167.35 262.851 167.44C263.023 167.529 263.165 167.649 263.276 167.8C263.388 167.948 263.469 168.116 263.522 168.304C263.576 168.489 263.604 168.68 263.604 168.876C263.604 169.101 263.572 169.312 263.509 169.508C263.445 169.704 263.351 169.877 263.224 170.025C263.1 170.173 262.946 170.289 262.763 170.372C262.579 170.455 262.367 170.496 262.124 170.496C261.867 170.496 261.642 170.444 261.45 170.339C261.258 170.232 261.099 170.09 260.972 169.914C260.846 169.737 260.751 169.541 260.688 169.325C260.624 169.109 260.593 168.889 260.593 168.667V168.382C260.593 168.046 260.627 167.717 260.694 167.394C260.762 167.071 260.879 166.778 261.044 166.517C261.212 166.255 261.445 166.046 261.741 165.892C262.038 165.737 262.417 165.659 262.877 165.659Z" fill="#172755"/>
<rect x="280.217" y="153.936" width="36.8634" height="29.0439" fill="white"/>
<path d="M296.769 169.933V170.431H293.65V169.996L295.211 168.258C295.403 168.044 295.552 167.863 295.656 167.714C295.763 167.564 295.837 167.43 295.879 167.312C295.922 167.192 295.944 167.07 295.944 166.945C295.944 166.788 295.912 166.646 295.846 166.52C295.783 166.391 295.689 166.289 295.565 166.212C295.44 166.136 295.29 166.098 295.113 166.098C294.901 166.098 294.725 166.139 294.583 166.222C294.443 166.303 294.338 166.416 294.269 166.562C294.199 166.709 294.164 166.877 294.164 167.066H293.559C293.559 166.798 293.617 166.553 293.735 166.33C293.853 166.108 294.028 165.931 294.259 165.8C294.49 165.667 294.775 165.6 295.113 165.6C295.414 165.6 295.672 165.654 295.885 165.761C296.099 165.865 296.263 166.014 296.376 166.206C296.492 166.396 296.55 166.618 296.55 166.873C296.55 167.013 296.526 167.155 296.478 167.299C296.432 167.441 296.368 167.582 296.285 167.724C296.204 167.866 296.109 168.006 296 168.143C295.893 168.281 295.778 168.416 295.656 168.549L294.38 169.933H296.769ZM300.497 165.666V166.006L298.523 170.431H297.885L299.855 166.163H297.276V165.666H300.497Z" fill="#172755"/>
<rect x="59.0366" y="182.98" width="36.8634" height="29.0439" fill="white"/>
<path d="M75.5883 198.977V199.475H72.4695V199.039L74.0305 197.302C74.2225 197.088 74.3709 196.907 74.4756 196.758C74.5825 196.608 74.6567 196.474 74.6982 196.356C74.7418 196.236 74.7636 196.114 74.7636 195.989C74.7636 195.832 74.7309 195.69 74.6654 195.564C74.6022 195.435 74.5084 195.333 74.384 195.256C74.2596 195.18 74.1091 195.142 73.9324 195.142C73.7207 195.142 73.544 195.183 73.4022 195.266C73.2626 195.347 73.1578 195.46 73.088 195.606C73.0182 195.753 72.9833 195.921 72.9833 196.11H72.3778C72.3778 195.842 72.4367 195.597 72.5546 195.374C72.6724 195.152 72.8469 194.975 73.0782 194.844C73.3095 194.711 73.5942 194.644 73.9324 194.644C74.2334 194.644 74.4909 194.698 74.7047 194.805C74.9185 194.909 75.0822 195.058 75.1956 195.25C75.3112 195.44 75.3691 195.662 75.3691 195.917C75.3691 196.057 75.3451 196.199 75.2971 196.343C75.2513 196.485 75.1869 196.626 75.104 196.768C75.0233 196.91 74.9283 197.05 74.8193 197.187C74.7123 197.325 74.5978 197.46 74.4756 197.593L73.1993 198.977H75.5883ZM79.2406 198.185C79.2406 198.475 79.173 198.722 79.0377 198.925C78.9046 199.126 78.7236 199.278 78.4945 199.383C78.2676 199.488 78.0112 199.54 77.7254 199.54C77.4396 199.54 77.1821 199.488 76.953 199.383C76.724 199.278 76.5429 199.126 76.4098 198.925C76.2767 198.722 76.2101 198.475 76.2101 198.185C76.2101 197.995 76.2461 197.822 76.3181 197.665C76.3923 197.506 76.496 197.367 76.629 197.249C76.7643 197.131 76.9236 197.041 77.1069 196.978C77.2923 196.912 77.4963 196.879 77.7188 196.879C78.0112 196.879 78.2719 196.936 78.501 197.05C78.7301 197.161 78.9101 197.315 79.041 197.511C79.1741 197.707 79.2406 197.932 79.2406 198.185ZM78.6319 198.172C78.6319 197.995 78.5937 197.839 78.5174 197.704C78.441 197.567 78.3341 197.46 78.1967 197.383C78.0592 197.307 77.8999 197.269 77.7188 197.269C77.5334 197.269 77.373 197.307 77.2378 197.383C77.1047 197.46 77.001 197.567 76.9269 197.704C76.8527 197.839 76.8156 197.995 76.8156 198.172C76.8156 198.355 76.8516 198.513 76.9236 198.643C76.9978 198.772 77.1025 198.871 77.2378 198.941C77.3752 199.009 77.5378 199.043 77.7254 199.043C77.913 199.043 78.0745 199.009 78.2097 198.941C78.345 198.871 78.4487 198.772 78.5207 198.643C78.5948 198.513 78.6319 198.355 78.6319 198.172ZM79.1294 195.95C79.1294 196.181 79.0683 196.39 78.9461 196.575C78.8239 196.761 78.657 196.907 78.4454 197.014C78.2337 197.121 77.9938 197.174 77.7254 197.174C77.4527 197.174 77.2094 197.121 76.9956 197.014C76.784 196.907 76.6181 196.761 76.4981 196.575C76.3781 196.39 76.3181 196.181 76.3181 195.95C76.3181 195.673 76.3781 195.437 76.4981 195.243C76.6203 195.049 76.7872 194.901 76.9989 194.798C77.2105 194.696 77.4516 194.644 77.7221 194.644C77.9948 194.644 78.237 194.696 78.4487 194.798C78.6603 194.901 78.8261 195.049 78.9461 195.243C79.0683 195.437 79.1294 195.673 79.1294 195.95ZM78.5239 195.96C78.5239 195.801 78.4901 195.66 78.4225 195.538C78.3548 195.416 78.261 195.32 78.141 195.25C78.021 195.178 77.8814 195.142 77.7221 195.142C77.5629 195.142 77.4232 195.176 77.3032 195.243C77.1854 195.309 77.0927 195.402 77.025 195.525C76.9596 195.647 76.9269 195.792 76.9269 195.96C76.9269 196.124 76.9596 196.266 77.025 196.389C77.0927 196.511 77.1865 196.606 77.3065 196.673C77.4265 196.741 77.5661 196.775 77.7254 196.775C77.8847 196.775 78.0232 196.741 78.141 196.673C78.261 196.606 78.3548 196.511 78.4225 196.389C78.4901 196.266 78.5239 196.124 78.5239 195.96Z" fill="#172755"/>
<rect x="95.8999" y="182.98" width="36.8634" height="29.0439" fill="white"/>
<path d="M112.452 198.977V199.475H109.333V199.039L110.894 197.302C111.086 197.088 111.234 196.907 111.339 196.758C111.446 196.608 111.52 196.474 111.562 196.356C111.605 196.236 111.627 196.114 111.627 195.989C111.627 195.832 111.594 195.69 111.529 195.564C111.466 195.435 111.372 195.333 111.248 195.256C111.123 195.18 110.973 195.142 110.796 195.142C110.584 195.142 110.408 195.183 110.266 195.266C110.126 195.347 110.021 195.46 109.952 195.606C109.882 195.753 109.847 195.921 109.847 196.11H109.241C109.241 195.842 109.3 195.597 109.418 195.374C109.536 195.152 109.71 194.975 109.942 194.844C110.173 194.711 110.458 194.644 110.796 194.644C111.097 194.644 111.354 194.698 111.568 194.805C111.782 194.909 111.946 195.058 112.059 195.25C112.175 195.44 112.233 195.662 112.233 195.917C112.233 196.057 112.209 196.199 112.161 196.343C112.115 196.485 112.05 196.626 111.968 196.768C111.887 196.91 111.792 197.05 111.683 197.187C111.576 197.325 111.461 197.46 111.339 197.593L110.063 198.977H112.452ZM113.702 198.967H113.764C114.113 198.967 114.397 198.918 114.615 198.82C114.833 198.722 115.001 198.59 115.119 198.424C115.237 198.258 115.318 198.072 115.361 197.865C115.405 197.655 115.427 197.44 115.427 197.22V196.49C115.427 196.274 115.402 196.082 115.351 195.914C115.303 195.746 115.236 195.605 115.149 195.492C115.063 195.378 114.966 195.292 114.857 195.233C114.748 195.174 114.633 195.145 114.51 195.145C114.371 195.145 114.245 195.173 114.134 195.23C114.025 195.285 113.932 195.362 113.856 195.462C113.782 195.563 113.725 195.681 113.686 195.816C113.646 195.951 113.627 196.098 113.627 196.258C113.627 196.4 113.644 196.537 113.679 196.67C113.714 196.803 113.767 196.923 113.839 197.03C113.911 197.137 114.001 197.222 114.108 197.285C114.217 197.346 114.345 197.377 114.491 197.377C114.626 197.377 114.753 197.351 114.87 197.298C114.99 197.244 115.096 197.171 115.188 197.079C115.282 196.985 115.356 196.879 115.41 196.762C115.467 196.644 115.5 196.521 115.509 196.392H115.797C115.797 196.573 115.761 196.752 115.689 196.929C115.619 197.103 115.521 197.262 115.394 197.406C115.267 197.55 115.119 197.666 114.949 197.753C114.779 197.838 114.593 197.881 114.393 197.881C114.157 197.881 113.953 197.835 113.781 197.743C113.608 197.652 113.466 197.53 113.355 197.377C113.246 197.224 113.164 197.054 113.11 196.866C113.057 196.677 113.031 196.485 113.031 196.29C113.031 196.064 113.063 195.851 113.126 195.652C113.189 195.454 113.283 195.279 113.407 195.129C113.532 194.976 113.686 194.857 113.869 194.772C114.054 194.687 114.268 194.644 114.51 194.644C114.783 194.644 115.015 194.699 115.207 194.808C115.399 194.917 115.555 195.063 115.675 195.246C115.798 195.43 115.887 195.636 115.944 195.865C116.001 196.094 116.029 196.33 116.029 196.572V196.791C116.029 197.038 116.013 197.289 115.98 197.544C115.949 197.797 115.889 198.039 115.8 198.27C115.713 198.502 115.585 198.709 115.417 198.892C115.249 199.073 115.03 199.217 114.759 199.324C114.491 199.429 114.159 199.481 113.764 199.481H113.702V198.967Z" fill="#172755"/>
<rect x="132.763" y="182.98" width="36.8634" height="29.0439" fill="white"/>
<path d="M147.077 196.794H147.509C147.72 196.794 147.895 196.76 148.032 196.69C148.172 196.618 148.276 196.521 148.343 196.398C148.413 196.274 148.448 196.134 148.448 195.98C148.448 195.796 148.417 195.642 148.356 195.518C148.295 195.394 148.204 195.3 148.081 195.237C147.959 195.173 147.804 195.142 147.617 195.142C147.446 195.142 147.296 195.176 147.165 195.243C147.036 195.309 146.935 195.402 146.861 195.525C146.789 195.647 146.753 195.791 146.753 195.957H146.147C146.147 195.714 146.208 195.494 146.33 195.296C146.453 195.097 146.624 194.939 146.844 194.821C147.067 194.703 147.324 194.644 147.617 194.644C147.905 194.644 148.157 194.696 148.373 194.798C148.589 194.898 148.757 195.049 148.877 195.25C148.997 195.448 149.057 195.696 149.057 195.993C149.057 196.113 149.028 196.241 148.972 196.379C148.917 196.514 148.831 196.641 148.713 196.758C148.597 196.876 148.447 196.973 148.261 197.05C148.076 197.124 147.853 197.161 147.594 197.161H147.077V196.794ZM147.077 197.292V196.929H147.594C147.897 196.929 148.148 196.965 148.346 197.037C148.545 197.109 148.701 197.205 148.814 197.325C148.93 197.445 149.011 197.577 149.057 197.721C149.105 197.862 149.129 198.004 149.129 198.146C149.129 198.369 149.09 198.566 149.014 198.738C148.94 198.911 148.834 199.057 148.697 199.177C148.561 199.297 148.402 199.387 148.219 199.449C148.036 199.51 147.836 199.54 147.62 199.54C147.413 199.54 147.217 199.511 147.034 199.452C146.853 199.393 146.693 199.308 146.553 199.197C146.413 199.083 146.304 198.945 146.226 198.781C146.147 198.615 146.108 198.426 146.108 198.215H146.713C146.713 198.381 146.749 198.526 146.821 198.65C146.896 198.774 147 198.871 147.136 198.941C147.273 199.009 147.434 199.043 147.62 199.043C147.805 199.043 147.965 199.011 148.098 198.948C148.233 198.882 148.337 198.784 148.409 198.653C148.483 198.522 148.52 198.358 148.52 198.159C148.52 197.961 148.478 197.798 148.396 197.671C148.313 197.543 148.195 197.448 148.042 197.387C147.892 197.323 147.714 197.292 147.509 197.292H147.077ZM152.954 196.713V197.439C152.954 197.83 152.919 198.159 152.85 198.427C152.78 198.696 152.679 198.912 152.549 199.075C152.418 199.239 152.259 199.358 152.074 199.432C151.891 199.504 151.683 199.54 151.452 199.54C151.269 199.54 151.1 199.517 150.945 199.471C150.79 199.426 150.65 199.353 150.526 199.252C150.404 199.15 150.299 199.017 150.212 198.853C150.125 198.689 150.058 198.491 150.012 198.257C149.966 198.024 149.943 197.751 149.943 197.439V196.713C149.943 196.322 149.978 195.995 150.048 195.731C150.12 195.467 150.222 195.255 150.353 195.096C150.483 194.934 150.641 194.819 150.824 194.749C151.009 194.679 151.217 194.644 151.446 194.644C151.631 194.644 151.801 194.667 151.956 194.713C152.113 194.757 152.253 194.828 152.375 194.926C152.497 195.022 152.601 195.15 152.686 195.312C152.773 195.471 152.84 195.666 152.886 195.898C152.931 196.129 152.954 196.401 152.954 196.713ZM152.346 197.537V196.611C152.346 196.397 152.333 196.21 152.306 196.048C152.282 195.885 152.246 195.745 152.198 195.629C152.15 195.514 152.089 195.42 152.015 195.348C151.943 195.276 151.859 195.224 151.763 195.191C151.669 195.156 151.563 195.138 151.446 195.138C151.302 195.138 151.174 195.166 151.063 195.22C150.951 195.273 150.858 195.357 150.781 195.472C150.707 195.588 150.65 195.74 150.611 195.927C150.572 196.115 150.552 196.343 150.552 196.611V197.537C150.552 197.751 150.564 197.94 150.588 198.103C150.614 198.267 150.653 198.409 150.703 198.529C150.753 198.647 150.814 198.744 150.886 198.82C150.958 198.897 151.041 198.953 151.135 198.99C151.231 199.025 151.337 199.043 151.452 199.043C151.601 199.043 151.73 199.014 151.842 198.958C151.953 198.901 152.046 198.813 152.12 198.693C152.196 198.57 152.253 198.414 152.29 198.225C152.327 198.033 152.346 197.803 152.346 197.537Z" fill="#172755"/>
<rect x="169.627" y="182.98" width="36.8634" height="29.0439" fill="white"/>
<path d="M183.94 196.794H184.372C184.584 196.794 184.758 196.76 184.896 196.69C185.035 196.618 185.139 196.521 185.207 196.398C185.277 196.274 185.311 196.134 185.311 195.98C185.311 195.796 185.281 195.642 185.22 195.518C185.159 195.394 185.067 195.3 184.945 195.237C184.823 195.173 184.668 195.142 184.48 195.142C184.31 195.142 184.159 195.176 184.029 195.243C183.9 195.309 183.798 195.402 183.724 195.525C183.652 195.647 183.616 195.791 183.616 195.957H183.011C183.011 195.714 183.072 195.494 183.194 195.296C183.316 195.097 183.487 194.939 183.708 194.821C183.93 194.703 184.188 194.644 184.48 194.644C184.768 194.644 185.02 194.696 185.236 194.798C185.452 194.898 185.62 195.049 185.74 195.25C185.86 195.448 185.92 195.696 185.92 195.993C185.92 196.113 185.892 196.241 185.835 196.379C185.78 196.514 185.694 196.641 185.576 196.758C185.461 196.876 185.31 196.973 185.125 197.05C184.939 197.124 184.717 197.161 184.457 197.161H183.94V196.794ZM183.94 197.292V196.929H184.457C184.761 196.929 185.011 196.965 185.21 197.037C185.408 197.109 185.564 197.205 185.678 197.325C185.794 197.445 185.874 197.577 185.92 197.721C185.968 197.862 185.992 198.004 185.992 198.146C185.992 198.369 185.954 198.566 185.878 198.738C185.803 198.911 185.698 199.057 185.56 199.177C185.425 199.297 185.266 199.387 185.082 199.449C184.899 199.51 184.699 199.54 184.483 199.54C184.276 199.54 184.081 199.511 183.898 199.452C183.717 199.393 183.556 199.308 183.417 199.197C183.277 199.083 183.168 198.945 183.089 198.781C183.011 198.615 182.971 198.426 182.971 198.215H183.577C183.577 198.381 183.613 198.526 183.685 198.65C183.759 198.774 183.864 198.871 183.999 198.941C184.137 199.009 184.298 199.043 184.483 199.043C184.669 199.043 184.828 199.011 184.961 198.948C185.097 198.882 185.2 198.784 185.272 198.653C185.346 198.522 185.383 198.358 185.383 198.159C185.383 197.961 185.342 197.798 185.259 197.671C185.176 197.543 185.058 197.448 184.906 197.387C184.755 197.323 184.577 197.292 184.372 197.292H183.94ZM188.816 194.684V199.475H188.211V195.44L186.99 195.885V195.338L188.722 194.684H188.816Z" fill="#172755"/>
<rect x="206.49" y="182.98" width="36.8634" height="29.0439" fill="white"/>
<rect x="243.354" y="182.98" width="36.8634" height="29.0439" fill="white"/>
<rect x="280.217" y="182.98" width="36.8634" height="29.0439" fill="white"/>
<path d="M68.6591 43.9048H69.2711L70.8322 47.7895L72.39 43.9048H73.0052L71.0678 48.6698H70.59L68.6591 43.9048ZM68.4595 43.9048H68.9995L69.0878 46.8109V48.6698H68.4595V43.9048ZM72.6616 43.9048H73.2016V48.6698H72.5732V46.8109L72.6616 43.9048ZM77.9797 46.1367V46.4378C77.9797 46.7956 77.935 47.1164 77.8455 47.4C77.7561 47.6836 77.6273 47.9247 77.4593 48.1233C77.2913 48.3218 77.0895 48.4734 76.8539 48.5782C76.6204 48.6829 76.3586 48.7353 76.0685 48.7353C75.787 48.7353 75.5285 48.6829 75.2928 48.5782C75.0594 48.4734 74.8565 48.3218 74.6841 48.1233C74.5139 47.9247 74.3819 47.6836 74.2881 47.4C74.1943 47.1164 74.1474 46.7956 74.1474 46.4378V46.1367C74.1474 45.7789 74.1932 45.4593 74.2848 45.1779C74.3787 44.8942 74.5107 44.6531 74.6808 44.4546C74.851 44.2539 75.0528 44.1011 75.2863 43.9964C75.5219 43.8917 75.7805 43.8393 76.0619 43.8393C76.3521 43.8393 76.6139 43.8917 76.8474 43.9964C77.083 44.1011 77.2848 44.2539 77.4528 44.4546C77.623 44.6531 77.7528 44.8942 77.8422 45.1779C77.9339 45.4593 77.9797 45.7789 77.9797 46.1367ZM77.3546 46.4378V46.1302C77.3546 45.8466 77.3252 45.5957 77.2663 45.3775C77.2095 45.1593 77.1255 44.976 77.0143 44.8277C76.903 44.6793 76.7666 44.567 76.6052 44.4906C76.4459 44.4142 76.2648 44.376 76.0619 44.376C75.8656 44.376 75.6877 44.4142 75.5285 44.4906C75.3714 44.567 75.2361 44.6793 75.1227 44.8277C75.0114 44.976 74.9252 45.1593 74.8641 45.3775C74.803 45.5957 74.7725 45.8466 74.7725 46.1302V46.4378C74.7725 46.7236 74.803 46.9767 74.8641 47.1971C74.9252 47.4153 75.0125 47.5996 75.1259 47.7502C75.2416 47.8985 75.3779 48.0109 75.535 48.0873C75.6943 48.1636 75.8721 48.2018 76.0685 48.2018C76.2735 48.2018 76.4557 48.1636 76.615 48.0873C76.7743 48.0109 76.9084 47.8985 77.0175 47.7502C77.1288 47.5996 77.2128 47.4153 77.2695 47.1971C77.3263 46.9767 77.3546 46.7236 77.3546 46.4378ZM82.5909 43.9048V48.6698H81.956L79.5571 44.9946V48.6698H78.9255V43.9048H79.5571L81.9658 47.5898V43.9048H82.5909Z" fill="#8794BA"/>
<path d="M109.807 43.9048V48.6698H109.185V43.9048H109.807ZM111.339 43.9048V44.4219H107.657V43.9048H111.339ZM114.772 43.9048H115.4V47.1284C115.4 47.4862 115.32 47.784 115.161 48.0218C115.002 48.2596 114.79 48.4385 114.526 48.5585C114.264 48.6763 113.98 48.7353 113.672 48.7353C113.349 48.7353 113.057 48.6763 112.795 48.5585C112.535 48.4385 112.329 48.2596 112.176 48.0218C112.026 47.784 111.951 47.4862 111.951 47.1284V43.9048H112.576V47.1284C112.576 47.3771 112.621 47.5822 112.713 47.7436C112.805 47.9051 112.932 48.0251 113.096 48.1036C113.262 48.1822 113.454 48.2214 113.672 48.2214C113.892 48.2214 114.084 48.1822 114.248 48.1036C114.414 48.0251 114.543 47.9051 114.634 47.7436C114.726 47.5822 114.772 47.3771 114.772 47.1284V43.9048ZM119.419 48.156V48.6698H116.896V48.156H119.419ZM117.023 43.9048V48.6698H116.392V43.9048H117.023ZM119.085 45.9535V46.4673H116.896V45.9535H119.085ZM119.386 43.9048V44.4219H116.896V43.9048H119.386Z" fill="#8794BA"/>
<path d="M145.045 47.2298L145.99 43.9048H146.449L146.184 45.1975L145.166 48.6698H144.711L145.045 47.2298ZM144.066 43.9048L144.819 47.1644L145.045 48.6698H144.593L143.438 43.9048H144.066ZM147.673 47.1611L148.409 43.9048H149.041L147.889 48.6698H147.437L147.673 47.1611ZM146.517 43.9048L147.437 47.2298L147.771 48.6698H147.316L146.334 45.1975L146.066 43.9048H146.517ZM152.768 48.156V48.6698H150.245V48.156H152.768ZM150.373 43.9048V48.6698H149.741V43.9048H150.373ZM152.434 45.9535V46.4673H150.245V45.9535H152.434ZM152.735 43.9048V44.4219H150.245V43.9048H152.735ZM154.84 48.6698H153.845L153.851 48.156H154.84C155.18 48.156 155.464 48.0851 155.691 47.9433C155.918 47.7993 156.088 47.5985 156.201 47.3411C156.317 47.0815 156.375 46.7782 156.375 46.4313V46.14C156.375 45.8673 156.342 45.6251 156.276 45.4135C156.211 45.1997 156.115 45.0197 155.988 44.8735C155.862 44.7251 155.707 44.6128 155.524 44.5364C155.343 44.46 155.134 44.4219 154.899 44.4219H153.825V43.9048H154.899C155.211 43.9048 155.495 43.9571 155.753 44.0619C156.01 44.1644 156.232 44.3139 156.417 44.5102C156.605 44.7044 156.749 44.94 156.849 45.2171C156.95 45.492 157 45.8018 157 46.1466V46.4313C157 46.776 156.95 47.0869 156.849 47.364C156.749 47.6389 156.604 47.8734 156.414 48.0676C156.226 48.2618 155.999 48.4113 155.733 48.516C155.469 48.6185 155.171 48.6698 154.84 48.6698ZM154.182 43.9048V48.6698H153.55V43.9048H154.182Z" fill="#8794BA"/>
<path d="M181.988 43.9048V48.6698H181.366V43.9048H181.988ZM183.519 43.9048V44.4219H179.838V43.9048H183.519ZM187.339 45.9535V46.4673H184.76V45.9535H187.339ZM184.858 43.9048V48.6698H184.226V43.9048H184.858ZM187.888 43.9048V48.6698H187.26V43.9048H187.888ZM191.737 43.9048H192.365V47.1284C192.365 47.4862 192.286 47.784 192.127 48.0218C191.967 48.2596 191.756 48.4385 191.492 48.5585C191.23 48.6763 190.945 48.7353 190.637 48.7353C190.315 48.7353 190.022 48.6763 189.76 48.5585C189.501 48.4385 189.295 48.2596 189.142 48.0218C188.991 47.784 188.916 47.4862 188.916 47.1284V43.9048H189.541V47.1284C189.541 47.3771 189.587 47.5822 189.679 47.7436C189.77 47.9051 189.898 48.0251 190.061 48.1036C190.227 48.1822 190.419 48.2214 190.637 48.2214C190.858 48.2214 191.05 48.1822 191.213 48.1036C191.379 48.0251 191.508 47.9051 191.6 47.7436C191.691 47.5822 191.737 47.3771 191.737 47.1284V43.9048Z" fill="#8794BA"/>
<path d="M220.132 43.9048V48.6698H219.501V43.9048H220.132ZM222.129 46.0484V46.5655H219.995V46.0484H222.129ZM222.453 43.9048V44.4219H219.995V43.9048H222.453ZM223.205 43.9048H224.783C225.141 43.9048 225.443 43.9593 225.689 44.0684C225.938 44.1775 226.127 44.339 226.255 44.5528C226.386 44.7644 226.452 45.0251 226.452 45.3349C226.452 45.5531 226.407 45.7528 226.318 45.9338C226.23 46.1127 226.104 46.2655 225.938 46.392C225.774 46.5164 225.578 46.6091 225.349 46.6702L225.172 46.7389H223.69L223.683 46.2251H224.802C225.029 46.2251 225.218 46.1858 225.369 46.1073C225.519 46.0266 225.633 45.9186 225.709 45.7833C225.785 45.648 225.823 45.4986 225.823 45.3349C225.823 45.1517 225.787 44.9913 225.715 44.8539C225.644 44.7164 225.53 44.6106 225.375 44.5364C225.222 44.46 225.025 44.4219 224.783 44.4219H223.837V48.6698H223.205V43.9048ZM225.99 48.6698L224.832 46.5098L225.49 46.5066L226.665 48.6305V48.6698H225.99ZM228.013 43.9048V48.6698H227.381V43.9048H228.013Z" fill="#8794BA"/>
<path d="M257.654 47.4655C257.654 47.3542 257.637 47.256 257.602 47.1709C257.569 47.0836 257.51 47.0051 257.425 46.9353C257.342 46.8655 257.227 46.7989 257.078 46.7356C256.932 46.6724 256.747 46.608 256.522 46.5426C256.286 46.4727 256.074 46.3953 255.884 46.3102C255.694 46.2229 255.531 46.1237 255.396 46.0124C255.261 45.9011 255.157 45.7735 255.085 45.6295C255.013 45.4855 254.977 45.3208 254.977 45.1353C254.977 44.9499 255.015 44.7786 255.092 44.6215C255.168 44.4644 255.277 44.3281 255.419 44.2124C255.563 44.0946 255.734 44.003 255.933 43.9375C256.131 43.8721 256.353 43.8393 256.597 43.8393C256.955 43.8393 257.258 43.9081 257.507 44.0455C257.758 44.1808 257.949 44.3586 258.08 44.579C258.211 44.7971 258.276 45.0306 258.276 45.2793H257.648C257.648 45.1004 257.61 44.9422 257.533 44.8048C257.457 44.6651 257.341 44.556 257.186 44.4775C257.031 44.3968 256.835 44.3564 256.597 44.3564C256.372 44.3564 256.187 44.3902 256.041 44.4579C255.895 44.5255 255.786 44.6171 255.714 44.7328C255.644 44.8484 255.609 44.9804 255.609 45.1288C255.609 45.2291 255.63 45.3208 255.671 45.4037C255.715 45.4844 255.781 45.5597 255.871 45.6295C255.962 45.6993 256.078 45.7637 256.218 45.8226C256.359 45.8815 256.528 45.9382 256.725 45.9928C256.995 46.0691 257.229 46.1542 257.425 46.248C257.622 46.3418 257.783 46.4477 257.91 46.5655C258.038 46.6811 258.133 46.8131 258.194 46.9615C258.258 47.1076 258.289 47.2735 258.289 47.4589C258.289 47.6531 258.25 47.8287 258.171 47.9858C258.093 48.1429 257.98 48.2771 257.834 48.3883C257.688 48.4996 257.512 48.5858 257.307 48.6469C257.104 48.7058 256.878 48.7353 256.627 48.7353C256.406 48.7353 256.189 48.7047 255.975 48.6436C255.764 48.5825 255.571 48.4909 255.396 48.3687C255.224 48.2465 255.085 48.096 254.981 47.9171C254.878 47.736 254.827 47.5265 254.827 47.2887H255.455C255.455 47.4524 255.487 47.5931 255.55 47.7109C255.613 47.8265 255.699 47.9225 255.808 47.9989C255.92 48.0753 256.045 48.132 256.185 48.1691C256.327 48.204 256.474 48.2214 256.627 48.2214C256.847 48.2214 257.034 48.1909 257.186 48.1298C257.339 48.0687 257.455 47.9814 257.533 47.868C257.614 47.7545 257.654 47.6204 257.654 47.4655ZM260.858 44.327L259.281 48.6698H258.636L260.452 43.9048H260.868L260.858 44.327ZM262.18 48.6698L260.6 44.327L260.59 43.9048H261.005L262.828 48.6698H262.18ZM262.099 46.9058V47.4229H259.422V46.9058H262.099ZM264.802 43.9048V48.6698H264.18V43.9048H264.802ZM266.333 43.9048V44.4219H262.652V43.9048H266.333Z" fill="#8794BA"/>
<path d="M293.367 47.4655C293.367 47.3542 293.349 47.256 293.314 47.1709C293.282 47.0836 293.223 47.0051 293.138 46.9353C293.055 46.8655 292.939 46.7989 292.791 46.7356C292.644 46.6724 292.459 46.608 292.234 46.5426C291.999 46.4727 291.786 46.3953 291.596 46.3102C291.406 46.2229 291.244 46.1237 291.108 46.0124C290.973 45.9011 290.87 45.7735 290.798 45.6295C290.726 45.4855 290.69 45.3208 290.69 45.1353C290.69 44.9499 290.728 44.7786 290.804 44.6215C290.88 44.4644 290.99 44.3281 291.131 44.2124C291.275 44.0946 291.447 44.003 291.645 43.9375C291.844 43.8721 292.065 43.8393 292.31 43.8393C292.667 43.8393 292.971 43.9081 293.219 44.0455C293.47 44.1808 293.661 44.3586 293.792 44.579C293.923 44.7971 293.988 45.0306 293.988 45.2793H293.36C293.36 45.1004 293.322 44.9422 293.246 44.8048C293.169 44.6651 293.054 44.556 292.899 44.4775C292.744 44.3968 292.547 44.3564 292.31 44.3564C292.085 44.3564 291.899 44.3902 291.753 44.4579C291.607 44.5255 291.498 44.6171 291.426 44.7328C291.356 44.8484 291.321 44.9804 291.321 45.1288C291.321 45.2291 291.342 45.3208 291.383 45.4037C291.427 45.4844 291.494 45.5597 291.583 45.6295C291.675 45.6993 291.79 45.7637 291.93 45.8226C292.072 45.8815 292.241 45.9382 292.437 45.9928C292.708 46.0691 292.941 46.1542 293.138 46.248C293.334 46.3418 293.495 46.4477 293.622 46.5655C293.751 46.6811 293.846 46.8131 293.907 46.9615C293.97 47.1076 294.002 47.2735 294.002 47.4589C294.002 47.6531 293.962 47.8287 293.884 47.9858C293.805 48.1429 293.693 48.2771 293.547 48.3883C293.4 48.4996 293.225 48.5858 293.02 48.6469C292.817 48.7058 292.59 48.7353 292.339 48.7353C292.119 48.7353 291.902 48.7047 291.688 48.6436C291.476 48.5825 291.283 48.4909 291.108 48.3687C290.936 48.2465 290.798 48.096 290.693 47.9171C290.59 47.736 290.539 47.5265 290.539 47.2887H291.167C291.167 47.4524 291.199 47.5931 291.262 47.7109C291.326 47.8265 291.412 47.9225 291.521 47.9989C291.632 48.0753 291.758 48.132 291.897 48.1691C292.039 48.204 292.186 48.2214 292.339 48.2214C292.559 48.2214 292.746 48.1909 292.899 48.1298C293.051 48.0687 293.167 47.9814 293.246 47.868C293.326 47.7545 293.367 47.6204 293.367 47.4655ZM297.533 43.9048H298.161V47.1284C298.161 47.4862 298.081 47.784 297.922 48.0218C297.763 48.2596 297.551 48.4385 297.287 48.5585C297.025 48.6763 296.741 48.7353 296.433 48.7353C296.11 48.7353 295.818 48.6763 295.556 48.5585C295.296 48.4385 295.09 48.2596 294.937 48.0218C294.787 47.784 294.712 47.4862 294.712 47.1284V43.9048H295.337V47.1284C295.337 47.3771 295.383 47.5822 295.474 47.7436C295.566 47.9051 295.693 48.0251 295.857 48.1036C296.023 48.1822 296.215 48.2214 296.433 48.2214C296.653 48.2214 296.845 48.1822 297.009 48.1036C297.175 48.0251 297.304 47.9051 297.395 47.7436C297.487 47.5822 297.533 47.3771 297.533 47.1284V43.9048ZM302.818 43.9048V48.6698H302.183L299.784 44.9946V48.6698H299.153V43.9048H299.784L302.193 47.5898V43.9048H302.818Z" fill="#8794BA"/>
<defs>
<filter id="filter0_d_535_2558" x="0.390183" y="0.338129" width="374.22" height="268.098" filterUnits="userSpaceOnUse" color-interpolation-filters="sRGB">
<feFlood flood-opacity="0" result="BackgroundImageFix"/>
<feColorMatrix in="SourceAlpha" type="matrix" values="0 0 0 0 0 0 0 0 0 0 0 0 0 0 0 0 0 0 127 0" result="hardAlpha"/>
<feMorphology radius="8.37805" operator="erode" in="SourceAlpha" result="effect1_dropShadow_535_2558"/>
<feOffset dy="10.0537"/>
<feGaussianBlur stdDeviation="13.9634"/>
<feColorMatrix type="matrix" values="0 0 0 0 0.0996452 0 0 0 0 0.164326 0 0 0 0 0.350284 0 0 0 0.2 0"/>
<feBlend mode="normal" in2="BackgroundImageFix" result="effect1_dropShadow_535_2558"/>
<feBlend mode="normal" in="SourceGraphic" in2="effect1_dropShadow_535_2558" result="shape"/>
</filter>
</defs>
</svg>
