<svg width="375" height="269" viewBox="0 0 375 269" fill="none" xmlns="http://www.w3.org/2000/svg">
<g filter="url(#filter0_d_535_2508)">
<rect x="20" y="10" width="335" height="228.917" rx="16.75" fill="white"/>
</g>
<path d="M81.9833 88.2099L142.833 53.078L203.683 88.2099V158.473L142.833 193.605L81.9833 158.473V88.2099Z" stroke="#EEEEF7" stroke-width="1.11667"/>
<path d="M103.259 100.493L142.833 77.6447L182.408 100.493V146.19L142.833 169.039L103.259 146.19V100.493Z" stroke="#EEEEF7" stroke-width="1.11667"/>
<path d="M110.681 104.925L143.036 78.2795L188.661 96.2035L191.928 150.925L143.026 179.995L107.143 142.48L110.681 104.925Z" stroke="#0088F0" stroke-width="2.23333"/>
<path d="M96.2244 96.7606L142.477 71.2142L168.092 109.364L184.955 147.908H142.986L113.683 139.722L96.2244 96.7606Z" stroke="#EF2A82" stroke-width="2.23333"/>
<path d="M129.369 115.568L142.833 107.795L156.297 115.568V131.115L142.833 138.889L129.369 131.115V115.568Z" stroke="#EEEEF7" stroke-width="1.11667"/>
<path d="M277.128 86.9631H278.547C279.242 86.9631 279.815 86.8484 280.267 86.6191C280.725 86.3826 281.066 86.0638 281.288 85.6624C281.517 85.254 281.632 84.7953 281.632 84.2866C281.632 83.6846 281.532 83.1794 281.331 82.7709C281.13 82.3625 280.829 82.0543 280.428 81.8465C280.027 81.6387 279.518 81.5348 278.902 81.5348C278.343 81.5348 277.848 81.6458 277.418 81.868C276.995 82.083 276.662 82.3911 276.419 82.7924C276.182 83.1937 276.064 83.6667 276.064 84.2113H274.075C274.075 83.4159 274.276 82.6921 274.677 82.04C275.078 81.3879 275.641 80.8683 276.365 80.4814C277.096 80.0944 277.941 79.9009 278.902 79.9009C279.848 79.9009 280.675 80.0693 281.385 80.4061C282.094 80.7357 282.646 81.2302 283.04 81.8895C283.434 82.5416 283.631 83.355 283.631 84.3296C283.631 84.7237 283.538 85.1465 283.352 85.598C283.173 86.0423 282.89 86.4579 282.503 86.8449C282.123 87.2318 281.628 87.5507 281.019 87.8015C280.41 88.0452 279.679 88.167 278.826 88.167H277.128V86.9631ZM277.128 88.597V87.4038H278.826C279.822 87.4038 280.647 87.5221 281.299 87.7585C281.951 87.995 282.463 88.3103 282.836 88.7045C283.216 89.0986 283.481 89.5321 283.631 90.0051C283.789 90.4709 283.868 90.9367 283.868 91.4025C283.868 92.1334 283.742 92.782 283.491 93.3481C283.248 93.9142 282.9 94.3944 282.449 94.7885C282.005 95.1826 281.481 95.48 280.879 95.6807C280.277 95.8813 279.622 95.9816 278.912 95.9816C278.232 95.9816 277.59 95.8849 276.988 95.6914C276.393 95.4979 275.867 95.2185 275.408 94.853C274.949 94.4803 274.591 94.0253 274.333 93.4878C274.075 92.9432 273.946 92.3233 273.946 91.6282H275.935C275.935 92.1729 276.053 92.6494 276.29 93.0579C276.533 93.4663 276.877 93.7852 277.321 94.0145C277.773 94.2367 278.303 94.3478 278.912 94.3478C279.521 94.3478 280.045 94.2439 280.482 94.036C280.926 93.8211 281.266 93.4986 281.503 93.0686C281.747 92.6387 281.868 92.0976 281.868 91.4455C281.868 90.7934 281.732 90.2595 281.46 89.8439C281.188 89.4211 280.801 89.1093 280.299 88.9087C279.805 88.7009 279.22 88.597 278.547 88.597H277.128ZM297.186 90.4996V92.1334H285.878V90.9618L292.886 80.1159H294.509L292.768 83.2546L288.135 90.4996H297.186ZM295.004 80.1159V95.7667H293.015V80.1159H295.004ZM298.82 83.9533V83.1256C298.82 82.5309 298.949 81.9898 299.207 81.5025C299.465 81.0152 299.834 80.6247 300.314 80.3309C300.794 80.0371 301.364 79.8901 302.023 79.8901C302.697 79.8901 303.27 80.0371 303.743 80.3309C304.223 80.6247 304.592 81.0152 304.85 81.5025C305.108 81.9898 305.237 82.5309 305.237 83.1256V83.9533C305.237 84.5338 305.108 85.0677 304.85 85.555C304.599 86.0423 304.234 86.4328 303.754 86.7266C303.281 87.0204 302.711 87.1673 302.045 87.1673C301.378 87.1673 300.801 87.0204 300.314 86.7266C299.834 86.4328 299.465 86.0423 299.207 85.555C298.949 85.0677 298.82 84.5338 298.82 83.9533ZM300.314 83.1256V83.9533C300.314 84.283 300.375 84.5947 300.497 84.8885C300.626 85.1823 300.819 85.4224 301.077 85.6087C301.335 85.7879 301.658 85.8774 302.045 85.8774C302.432 85.8774 302.75 85.7879 303.001 85.6087C303.252 85.4224 303.438 85.1823 303.56 84.8885C303.682 84.5947 303.743 84.283 303.743 83.9533V83.1256C303.743 82.7888 303.678 82.4735 303.549 82.1797C303.428 81.8787 303.238 81.6387 302.98 81.4595C302.729 81.2732 302.41 81.18 302.023 81.18C301.643 81.18 301.324 81.2732 301.066 81.4595C300.816 81.6387 300.626 81.8787 300.497 82.1797C300.375 82.4735 300.314 82.7888 300.314 83.1256ZM306.441 92.7676V91.9292C306.441 91.3416 306.57 90.8041 306.828 90.3168C307.086 89.8295 307.455 89.439 307.935 89.1452C308.415 88.8514 308.985 88.7045 309.644 88.7045C310.318 88.7045 310.891 88.8514 311.364 89.1452C311.844 89.439 312.213 89.8295 312.471 90.3168C312.729 90.8041 312.858 91.3416 312.858 91.9292V92.7676C312.858 93.3553 312.729 93.8927 312.471 94.38C312.22 94.8673 311.855 95.2579 311.375 95.5517C310.902 95.8455 310.332 95.9924 309.666 95.9924C308.999 95.9924 308.426 95.8455 307.946 95.5517C307.466 95.2579 307.093 94.8673 306.828 94.38C306.57 93.8927 306.441 93.3553 306.441 92.7676ZM307.935 91.9292V92.7676C307.935 93.0973 307.996 93.4126 308.118 93.7136C308.247 94.0074 308.44 94.2474 308.698 94.4338C308.956 94.6129 309.279 94.7025 309.666 94.7025C310.053 94.7025 310.372 94.6129 310.622 94.4338C310.88 94.2474 311.07 94.0074 311.192 93.7136C311.314 93.4198 311.375 93.1045 311.375 92.7676V91.9292C311.375 91.5924 311.31 91.2771 311.181 90.9833C311.059 90.6895 310.87 90.453 310.612 90.2738C310.361 90.0875 310.038 89.9944 309.644 89.9944C309.264 89.9944 308.945 90.0875 308.688 90.2738C308.437 90.453 308.247 90.6895 308.118 90.9833C307.996 91.2771 307.935 91.5924 307.935 91.9292ZM310.139 82.341L302.496 94.5735L301.378 93.8641L309.021 81.6315L310.139 82.341Z" fill="#EF2A82"/>
<path d="M273.377 109.412V109.3C273.377 108.917 273.432 108.562 273.543 108.235C273.655 107.904 273.815 107.618 274.024 107.376C274.234 107.131 274.487 106.941 274.785 106.807C275.083 106.669 275.416 106.601 275.786 106.601C276.159 106.601 276.494 106.669 276.792 106.807C277.093 106.941 277.348 107.131 277.557 107.376C277.77 107.618 277.932 107.904 278.043 108.235C278.155 108.562 278.21 108.917 278.21 109.3V109.412C278.21 109.795 278.155 110.15 278.043 110.477C277.932 110.804 277.77 111.091 277.557 111.336C277.348 111.578 277.095 111.768 276.797 111.905C276.502 112.039 276.169 112.106 275.796 112.106C275.423 112.106 275.088 112.039 274.79 111.905C274.492 111.768 274.237 111.578 274.024 111.336C273.815 111.091 273.655 110.804 273.543 110.477C273.432 110.15 273.377 109.795 273.377 109.412ZM274.284 109.3V109.412C274.284 109.677 274.315 109.928 274.378 110.163C274.44 110.395 274.533 110.602 274.657 110.782C274.785 110.961 274.944 111.104 275.133 111.208C275.323 111.31 275.544 111.361 275.796 111.361C276.044 111.361 276.262 111.31 276.448 111.208C276.638 111.104 276.795 110.961 276.92 110.782C277.044 110.602 277.137 110.395 277.199 110.163C277.265 109.928 277.297 109.677 277.297 109.412V109.3C277.297 109.038 277.265 108.791 277.199 108.559C277.137 108.323 277.042 108.115 276.915 107.935C276.79 107.752 276.633 107.608 276.444 107.503C276.257 107.399 276.038 107.346 275.786 107.346C275.537 107.346 275.318 107.399 275.128 107.503C274.942 107.608 274.785 107.752 274.657 107.935C274.533 108.115 274.44 108.323 274.378 108.559C274.315 108.791 274.284 109.038 274.284 109.3ZM280.256 107.719V114.05H279.344V106.699H280.178L280.256 107.719ZM283.834 109.309V109.412C283.834 109.798 283.788 110.157 283.696 110.487C283.605 110.814 283.471 111.099 283.294 111.341C283.121 111.583 282.906 111.771 282.651 111.905C282.396 112.039 282.103 112.106 281.773 112.106C281.436 112.106 281.138 112.051 280.88 111.94C280.621 111.828 280.402 111.666 280.222 111.454C280.042 111.241 279.898 110.986 279.79 110.688C279.686 110.391 279.614 110.055 279.574 109.682V109.133C279.614 108.74 279.687 108.388 279.795 108.078C279.903 107.767 280.045 107.502 280.222 107.283C280.402 107.06 280.62 106.892 280.875 106.777C281.13 106.659 281.424 106.601 281.758 106.601C282.092 106.601 282.388 106.666 282.646 106.797C282.905 106.924 283.122 107.108 283.299 107.346C283.476 107.585 283.608 107.872 283.696 108.205C283.788 108.536 283.834 108.904 283.834 109.309ZM282.921 109.412V109.309C282.921 109.044 282.893 108.796 282.838 108.563C282.782 108.328 282.695 108.122 282.578 107.945C282.463 107.765 282.316 107.625 282.136 107.523C281.956 107.418 281.742 107.366 281.493 107.366C281.264 107.366 281.065 107.405 280.894 107.484C280.728 107.562 280.585 107.669 280.467 107.803C280.35 107.934 280.253 108.084 280.178 108.254C280.106 108.421 280.052 108.595 280.016 108.774V110.045C280.081 110.274 280.173 110.49 280.291 110.693C280.409 110.893 280.566 111.055 280.762 111.179C280.958 111.3 281.205 111.361 281.503 111.361C281.748 111.361 281.959 111.31 282.136 111.208C282.316 111.104 282.463 110.961 282.578 110.782C282.695 110.602 282.782 110.395 282.838 110.163C282.893 109.928 282.921 109.677 282.921 109.412ZM287.215 106.699V107.396H284.344V106.699H287.215ZM285.316 105.408H286.224V110.693C286.224 110.873 286.251 111.009 286.307 111.1C286.363 111.192 286.435 111.253 286.523 111.282C286.611 111.312 286.706 111.326 286.808 111.326C286.883 111.326 286.961 111.32 287.043 111.307C287.128 111.29 287.192 111.277 287.235 111.267L287.239 112.008C287.167 112.031 287.073 112.052 286.955 112.072C286.84 112.095 286.701 112.106 286.538 112.106C286.315 112.106 286.111 112.062 285.924 111.974C285.738 111.886 285.589 111.738 285.478 111.532C285.37 111.323 285.316 111.042 285.316 110.688V105.408ZM289.266 106.699V112.008H288.353V106.699H289.266ZM288.285 105.29C288.285 105.143 288.329 105.019 288.417 104.917C288.509 104.816 288.643 104.765 288.82 104.765C288.993 104.765 289.125 104.816 289.217 104.917C289.312 105.019 289.359 105.143 289.359 105.29C289.359 105.431 289.312 105.552 289.217 105.653C289.125 105.752 288.993 105.801 288.82 105.801C288.643 105.801 288.509 105.752 288.417 105.653C288.329 105.552 288.285 105.431 288.285 105.29ZM290.483 109.412V109.3C290.483 108.917 290.539 108.562 290.65 108.235C290.761 107.904 290.921 107.618 291.131 107.376C291.34 107.131 291.594 106.941 291.891 106.807C292.189 106.669 292.523 106.601 292.893 106.601C293.266 106.601 293.601 106.669 293.899 106.807C294.2 106.941 294.455 107.131 294.664 107.376C294.877 107.618 295.039 107.904 295.15 108.235C295.261 108.562 295.317 108.917 295.317 109.3V109.412C295.317 109.795 295.261 110.15 295.15 110.477C295.039 110.804 294.877 111.091 294.664 111.336C294.455 111.578 294.201 111.768 293.903 111.905C293.609 112.039 293.275 112.106 292.902 112.106C292.529 112.106 292.194 112.039 291.896 111.905C291.599 111.768 291.344 111.578 291.131 111.336C290.921 111.091 290.761 110.804 290.65 110.477C290.539 110.15 290.483 109.795 290.483 109.412ZM291.391 109.3V109.412C291.391 109.677 291.422 109.928 291.484 110.163C291.546 110.395 291.64 110.602 291.764 110.782C291.891 110.961 292.05 111.104 292.24 111.208C292.43 111.31 292.65 111.361 292.902 111.361C293.151 111.361 293.369 111.31 293.555 111.208C293.745 111.104 293.902 110.961 294.026 110.782C294.15 110.602 294.244 110.395 294.306 110.163C294.371 109.928 294.404 109.677 294.404 109.412V109.3C294.404 109.038 294.371 108.791 294.306 108.559C294.244 108.323 294.149 108.115 294.021 107.935C293.897 107.752 293.74 107.608 293.55 107.503C293.364 107.399 293.144 107.346 292.893 107.346C292.644 107.346 292.425 107.399 292.235 107.503C292.049 107.608 291.891 107.752 291.764 107.935C291.64 108.115 291.546 108.323 291.484 108.559C291.422 108.791 291.391 109.038 291.391 109.3ZM297.363 107.832V112.008H296.455V106.699H297.314L297.363 107.832ZM297.147 109.152L296.769 109.138C296.773 108.774 296.827 108.439 296.931 108.132C297.036 107.821 297.183 107.551 297.373 107.322C297.563 107.093 297.788 106.916 298.05 106.792C298.315 106.664 298.608 106.601 298.928 106.601C299.19 106.601 299.426 106.637 299.635 106.709C299.844 106.777 300.023 106.888 300.17 107.042C300.32 107.196 300.435 107.396 300.513 107.641C300.592 107.883 300.631 108.179 300.631 108.529V112.008H299.719V108.519C299.719 108.241 299.678 108.019 299.596 107.852C299.514 107.682 299.395 107.559 299.238 107.484C299.081 107.405 298.888 107.366 298.659 107.366C298.433 107.366 298.227 107.414 298.04 107.508C297.857 107.603 297.698 107.734 297.564 107.901C297.433 108.068 297.33 108.259 297.255 108.475C297.183 108.688 297.147 108.914 297.147 109.152ZM307.389 104.824V112.008H306.481V105.958L304.65 106.625V105.806L307.246 104.824H307.389Z" fill="#8794BA"/>
<path d="M284.48 156.666V158.3H274.236V156.87L279.364 151.163C279.994 150.46 280.482 149.865 280.826 149.378C281.177 148.884 281.42 148.443 281.557 148.056C281.7 147.662 281.772 147.261 281.772 146.852C281.772 146.336 281.664 145.87 281.449 145.455C281.241 145.032 280.933 144.695 280.525 144.444C280.116 144.194 279.622 144.068 279.041 144.068C278.346 144.068 277.766 144.204 277.3 144.477C276.841 144.742 276.497 145.114 276.268 145.594C276.039 146.075 275.924 146.626 275.924 147.25H273.935C273.935 146.368 274.129 145.562 274.516 144.831C274.903 144.1 275.476 143.52 276.236 143.09C276.995 142.653 277.931 142.434 279.041 142.434C280.03 142.434 280.876 142.61 281.578 142.961C282.28 143.305 282.818 143.792 283.191 144.423C283.57 145.046 283.76 145.777 283.76 146.616C283.76 147.074 283.681 147.54 283.524 148.013C283.373 148.479 283.162 148.945 282.89 149.41C282.624 149.876 282.313 150.335 281.954 150.786C281.603 151.238 281.227 151.682 280.826 152.119L276.634 156.666H284.48ZM288.587 156.634H288.791C289.937 156.634 290.869 156.473 291.586 156.15C292.302 155.828 292.854 155.394 293.241 154.85C293.628 154.305 293.893 153.692 294.036 153.011C294.18 152.323 294.251 151.618 294.251 150.894V148.497C294.251 147.787 294.169 147.157 294.004 146.605C293.847 146.053 293.624 145.591 293.338 145.218C293.058 144.846 292.739 144.563 292.381 144.369C292.023 144.176 291.643 144.079 291.242 144.079C290.783 144.079 290.371 144.172 290.005 144.358C289.647 144.537 289.343 144.792 289.092 145.122C288.848 145.451 288.662 145.838 288.533 146.282C288.404 146.727 288.339 147.21 288.339 147.734C288.339 148.199 288.397 148.651 288.511 149.088C288.626 149.525 288.802 149.919 289.038 150.27C289.275 150.622 289.568 150.901 289.919 151.109C290.278 151.309 290.697 151.41 291.177 151.41C291.621 151.41 292.037 151.324 292.424 151.152C292.818 150.973 293.166 150.733 293.467 150.432C293.775 150.123 294.018 149.776 294.198 149.389C294.384 149.002 294.491 148.597 294.52 148.174H295.466C295.466 148.769 295.348 149.357 295.111 149.937C294.882 150.51 294.56 151.034 294.144 151.507C293.728 151.979 293.241 152.359 292.682 152.646C292.123 152.925 291.514 153.065 290.855 153.065C290.081 153.065 289.411 152.915 288.845 152.614C288.278 152.313 287.813 151.911 287.447 151.41C287.089 150.908 286.82 150.349 286.641 149.733C286.469 149.109 286.383 148.479 286.383 147.841C286.383 147.096 286.487 146.397 286.695 145.745C286.903 145.093 287.211 144.52 287.619 144.025C288.028 143.523 288.533 143.133 289.135 142.853C289.744 142.574 290.446 142.434 291.242 142.434C292.137 142.434 292.901 142.613 293.531 142.972C294.162 143.33 294.674 143.81 295.068 144.412C295.47 145.014 295.763 145.691 295.95 146.444C296.136 147.196 296.229 147.97 296.229 148.765V149.486C296.229 150.295 296.175 151.12 296.068 151.958C295.968 152.789 295.771 153.585 295.477 154.344C295.19 155.104 294.771 155.785 294.219 156.387C293.667 156.981 292.947 157.454 292.059 157.806C291.177 158.149 290.088 158.321 288.791 158.321H288.587V156.634ZM298.82 146.487V145.659C298.82 145.064 298.949 144.523 299.207 144.036C299.465 143.549 299.834 143.158 300.314 142.864C300.794 142.57 301.364 142.423 302.023 142.423C302.697 142.423 303.27 142.57 303.743 142.864C304.223 143.158 304.592 143.549 304.85 144.036C305.108 144.523 305.237 145.064 305.237 145.659V146.487C305.237 147.067 305.108 147.601 304.85 148.088C304.599 148.576 304.234 148.966 303.754 149.26C303.281 149.554 302.711 149.701 302.045 149.701C301.378 149.701 300.801 149.554 300.314 149.26C299.834 148.966 299.465 148.576 299.207 148.088C298.949 147.601 298.82 147.067 298.82 146.487ZM300.314 145.659V146.487C300.314 146.816 300.375 147.128 300.497 147.422C300.626 147.716 300.819 147.956 301.077 148.142C301.335 148.321 301.658 148.411 302.045 148.411C302.432 148.411 302.75 148.321 303.001 148.142C303.252 147.956 303.438 147.716 303.56 147.422C303.682 147.128 303.743 146.816 303.743 146.487V145.659C303.743 145.322 303.678 145.007 303.549 144.713C303.428 144.412 303.238 144.172 302.98 143.993C302.729 143.807 302.41 143.713 302.023 143.713C301.643 143.713 301.324 143.807 301.066 143.993C300.816 144.172 300.626 144.412 300.497 144.713C300.375 145.007 300.314 145.322 300.314 145.659ZM306.441 155.301V154.463C306.441 153.875 306.57 153.337 306.828 152.85C307.086 152.363 307.455 151.972 307.935 151.679C308.415 151.385 308.985 151.238 309.644 151.238C310.318 151.238 310.891 151.385 311.364 151.679C311.844 151.972 312.213 152.363 312.471 152.85C312.729 153.337 312.858 153.875 312.858 154.463V155.301C312.858 155.889 312.729 156.426 312.471 156.913C312.22 157.401 311.855 157.791 311.375 158.085C310.902 158.379 310.332 158.526 309.666 158.526C308.999 158.526 308.426 158.379 307.946 158.085C307.466 157.791 307.093 157.401 306.828 156.913C306.57 156.426 306.441 155.889 306.441 155.301ZM307.935 154.463V155.301C307.935 155.631 307.996 155.946 308.118 156.247C308.247 156.541 308.44 156.781 308.698 156.967C308.956 157.146 309.279 157.236 309.666 157.236C310.053 157.236 310.372 157.146 310.622 156.967C310.88 156.781 311.07 156.541 311.192 156.247C311.314 155.953 311.375 155.638 311.375 155.301V154.463C311.375 154.126 311.31 153.81 311.181 153.517C311.059 153.223 310.87 152.986 310.612 152.807C310.361 152.621 310.038 152.528 309.644 152.528C309.264 152.528 308.945 152.621 308.688 152.807C308.437 152.986 308.247 153.223 308.118 153.517C307.996 153.81 307.935 154.126 307.935 154.463ZM310.139 144.874L302.496 157.107L301.378 156.397L309.021 144.165L310.139 144.874Z" fill="#0088F0"/>
<path d="M273.377 171.946V171.833C273.377 171.45 273.432 171.095 273.543 170.768C273.655 170.438 273.815 170.151 274.024 169.909C274.234 169.664 274.487 169.474 274.785 169.34C275.083 169.203 275.416 169.134 275.786 169.134C276.159 169.134 276.494 169.203 276.792 169.34C277.093 169.474 277.348 169.664 277.557 169.909C277.77 170.151 277.932 170.438 278.043 170.768C278.155 171.095 278.21 171.45 278.21 171.833V171.946C278.21 172.328 278.155 172.683 278.043 173.011C277.932 173.338 277.77 173.624 277.557 173.869C277.348 174.111 277.095 174.301 276.797 174.439C276.502 174.573 276.169 174.64 275.796 174.64C275.423 174.64 275.088 174.573 274.79 174.439C274.492 174.301 274.237 174.111 274.024 173.869C273.815 173.624 273.655 173.338 273.543 173.011C273.432 172.683 273.377 172.328 273.377 171.946ZM274.284 171.833V171.946C274.284 172.211 274.315 172.461 274.378 172.697C274.44 172.929 274.533 173.135 274.657 173.315C274.785 173.495 274.944 173.637 275.133 173.742C275.323 173.843 275.544 173.894 275.796 173.894C276.044 173.894 276.262 173.843 276.448 173.742C276.638 173.637 276.795 173.495 276.92 173.315C277.044 173.135 277.137 172.929 277.199 172.697C277.265 172.461 277.297 172.211 277.297 171.946V171.833C277.297 171.571 277.265 171.324 277.199 171.092C277.137 170.856 277.042 170.649 276.915 170.469C276.79 170.285 276.633 170.142 276.444 170.037C276.257 169.932 276.038 169.88 275.786 169.88C275.537 169.88 275.318 169.932 275.128 170.037C274.942 170.142 274.785 170.285 274.657 170.469C274.533 170.649 274.44 170.856 274.378 171.092C274.315 171.324 274.284 171.571 274.284 171.833ZM280.256 170.253V176.583H279.344V169.232H280.178L280.256 170.253ZM283.834 171.843V171.946C283.834 172.332 283.788 172.69 283.696 173.02C283.605 173.348 283.471 173.632 283.294 173.874C283.121 174.116 282.906 174.304 282.651 174.439C282.396 174.573 282.103 174.64 281.773 174.64C281.436 174.64 281.138 174.584 280.88 174.473C280.621 174.362 280.402 174.2 280.222 173.987C280.042 173.774 279.898 173.519 279.79 173.222C279.686 172.924 279.614 172.589 279.574 172.216V171.666C279.614 171.273 279.687 170.922 279.795 170.611C279.903 170.3 280.045 170.035 280.222 169.816C280.402 169.594 280.62 169.425 280.875 169.311C281.13 169.193 281.424 169.134 281.758 169.134C282.092 169.134 282.388 169.199 282.646 169.33C282.905 169.458 283.122 169.641 283.299 169.88C283.476 170.119 283.608 170.405 283.696 170.739C283.788 171.069 283.834 171.437 283.834 171.843ZM282.921 171.946V171.843C282.921 171.578 282.893 171.329 282.838 171.097C282.782 170.861 282.695 170.655 282.578 170.478C282.463 170.299 282.316 170.158 282.136 170.056C281.956 169.952 281.742 169.899 281.493 169.899C281.264 169.899 281.065 169.939 280.894 170.017C280.728 170.096 280.585 170.202 280.467 170.336C280.35 170.467 280.253 170.618 280.178 170.788C280.106 170.954 280.052 171.128 280.016 171.308V172.579C280.081 172.808 280.173 173.024 280.291 173.227C280.409 173.426 280.566 173.588 280.762 173.712C280.958 173.833 281.205 173.894 281.503 173.894C281.748 173.894 281.959 173.843 282.136 173.742C282.316 173.637 282.463 173.495 282.578 173.315C282.695 173.135 282.782 172.929 282.838 172.697C282.893 172.461 282.921 172.211 282.921 171.946ZM287.215 169.232V169.929H284.344V169.232H287.215ZM285.316 167.941H286.224V173.227C286.224 173.406 286.251 173.542 286.307 173.634C286.363 173.725 286.435 173.786 286.523 173.815C286.611 173.845 286.706 173.86 286.808 173.86C286.883 173.86 286.961 173.853 287.043 173.84C287.128 173.824 287.192 173.81 287.235 173.801L287.239 174.542C287.167 174.565 287.073 174.586 286.955 174.605C286.84 174.628 286.701 174.64 286.538 174.64C286.315 174.64 286.111 174.596 285.924 174.507C285.738 174.419 285.589 174.272 285.478 174.066C285.37 173.856 285.316 173.575 285.316 173.222V167.941ZM289.266 169.232V174.542H288.353V169.232H289.266ZM288.285 167.824C288.285 167.676 288.329 167.552 288.417 167.451C288.509 167.349 288.643 167.299 288.82 167.299C288.993 167.299 289.125 167.349 289.217 167.451C289.312 167.552 289.359 167.676 289.359 167.824C289.359 167.964 289.312 168.085 289.217 168.187C289.125 168.285 288.993 168.334 288.82 168.334C288.643 168.334 288.509 168.285 288.417 168.187C288.329 168.085 288.285 167.964 288.285 167.824ZM290.483 171.946V171.833C290.483 171.45 290.539 171.095 290.65 170.768C290.761 170.438 290.921 170.151 291.131 169.909C291.34 169.664 291.594 169.474 291.891 169.34C292.189 169.203 292.523 169.134 292.893 169.134C293.266 169.134 293.601 169.203 293.899 169.34C294.2 169.474 294.455 169.664 294.664 169.909C294.877 170.151 295.039 170.438 295.15 170.768C295.261 171.095 295.317 171.45 295.317 171.833V171.946C295.317 172.328 295.261 172.683 295.15 173.011C295.039 173.338 294.877 173.624 294.664 173.869C294.455 174.111 294.201 174.301 293.903 174.439C293.609 174.573 293.275 174.64 292.902 174.64C292.529 174.64 292.194 174.573 291.896 174.439C291.599 174.301 291.344 174.111 291.131 173.869C290.921 173.624 290.761 173.338 290.65 173.011C290.539 172.683 290.483 172.328 290.483 171.946ZM291.391 171.833V171.946C291.391 172.211 291.422 172.461 291.484 172.697C291.546 172.929 291.64 173.135 291.764 173.315C291.891 173.495 292.05 173.637 292.24 173.742C292.43 173.843 292.65 173.894 292.902 173.894C293.151 173.894 293.369 173.843 293.555 173.742C293.745 173.637 293.902 173.495 294.026 173.315C294.15 173.135 294.244 172.929 294.306 172.697C294.371 172.461 294.404 172.211 294.404 171.946V171.833C294.404 171.571 294.371 171.324 294.306 171.092C294.244 170.856 294.149 170.649 294.021 170.469C293.897 170.285 293.74 170.142 293.55 170.037C293.364 169.932 293.144 169.88 292.893 169.88C292.644 169.88 292.425 169.932 292.235 170.037C292.049 170.142 291.891 170.285 291.764 170.469C291.64 170.649 291.546 170.856 291.484 171.092C291.422 171.324 291.391 171.571 291.391 171.833ZM297.363 170.366V174.542H296.455V169.232H297.314L297.363 170.366ZM297.147 171.686L296.769 171.671C296.773 171.308 296.827 170.972 296.931 170.665C297.036 170.354 297.183 170.084 297.373 169.855C297.563 169.626 297.788 169.45 298.05 169.325C298.315 169.198 298.608 169.134 298.928 169.134C299.19 169.134 299.426 169.17 299.635 169.242C299.844 169.311 300.023 169.422 300.17 169.576C300.32 169.729 300.435 169.929 300.513 170.174C300.592 170.416 300.631 170.712 300.631 171.062V174.542H299.719V171.053C299.719 170.775 299.678 170.552 299.596 170.385C299.514 170.215 299.395 170.092 299.238 170.017C299.081 169.939 298.888 169.899 298.659 169.899C298.433 169.899 298.227 169.947 298.04 170.042C297.857 170.137 297.698 170.267 297.564 170.434C297.433 170.601 297.33 170.793 297.255 171.008C297.183 171.221 297.147 171.447 297.147 171.686ZM309.086 173.796V174.542H304.41V173.889L306.751 171.283C307.038 170.963 307.261 170.691 307.418 170.469C307.578 170.243 307.689 170.042 307.752 169.865C307.817 169.685 307.85 169.502 307.85 169.315C307.85 169.08 307.801 168.867 307.703 168.678C307.608 168.485 307.467 168.331 307.281 168.216C307.094 168.102 306.868 168.044 306.603 168.044C306.286 168.044 306.021 168.107 305.808 168.231C305.599 168.352 305.442 168.522 305.337 168.741C305.233 168.961 305.18 169.212 305.18 169.497H304.272C304.272 169.095 304.361 168.727 304.537 168.393C304.714 168.059 304.976 167.794 305.323 167.598C305.669 167.398 306.096 167.299 306.603 167.299C307.055 167.299 307.441 167.379 307.761 167.539C308.082 167.696 308.327 167.919 308.498 168.206C308.671 168.491 308.758 168.825 308.758 169.208C308.758 169.417 308.722 169.63 308.65 169.845C308.581 170.058 308.484 170.271 308.36 170.483C308.239 170.696 308.097 170.905 307.933 171.112C307.773 171.318 307.601 171.52 307.418 171.72L305.504 173.796H309.086Z" fill="#8794BA"/>
<path d="M136.88 40.6856V45.475H136.275V41.4413L135.054 41.8862V41.3398L136.785 40.6856H136.88ZM141.663 44.186C141.663 44.4761 141.595 44.7226 141.46 44.9254C141.327 45.126 141.146 45.2787 140.917 45.3834C140.69 45.4881 140.434 45.5404 140.148 45.5404C139.862 45.5404 139.605 45.4881 139.376 45.3834C139.147 45.2787 138.966 45.126 138.833 44.9254C138.7 44.7226 138.633 44.4761 138.633 44.186C138.633 43.9963 138.669 43.8229 138.741 43.6659C138.815 43.5067 138.919 43.3682 139.052 43.2504C139.187 43.1326 139.347 43.0421 139.53 42.9789C139.715 42.9134 139.919 42.8807 140.142 42.8807C140.434 42.8807 140.694 42.9374 140.923 43.0508C141.152 43.1621 141.332 43.3158 141.463 43.5121C141.596 43.7084 141.663 43.933 141.663 44.186ZM141.054 44.173C141.054 43.9963 141.016 43.8404 140.94 43.7051C140.863 43.5677 140.757 43.4609 140.619 43.3845C140.482 43.3082 140.323 43.27 140.142 43.27C139.956 43.27 139.796 43.3082 139.661 43.3845C139.528 43.4609 139.424 43.5677 139.35 43.7051C139.276 43.8404 139.239 43.9963 139.239 44.173C139.239 44.3562 139.275 44.5132 139.347 44.644C139.421 44.7727 139.525 44.872 139.661 44.9418C139.798 45.0094 139.96 45.0432 140.148 45.0432C140.336 45.0432 140.497 45.0094 140.632 44.9418C140.767 44.872 140.871 44.7727 140.943 44.644C141.017 44.5132 141.054 44.3562 141.054 44.173ZM141.552 41.9516C141.552 42.1828 141.49 42.3911 141.368 42.5765C141.246 42.7619 141.079 42.908 140.868 43.0148C140.656 43.1217 140.416 43.1752 140.148 43.1752C139.875 43.1752 139.632 43.1217 139.419 43.0148C139.207 42.908 139.041 42.7619 138.921 42.5765C138.801 42.3911 138.741 42.1828 138.741 41.9516C138.741 41.6746 138.801 41.4391 138.921 41.245C139.043 41.0509 139.21 40.9026 139.422 40.8001C139.633 40.6975 139.874 40.6463 140.145 40.6463C140.417 40.6463 140.659 40.6975 140.871 40.8001C141.083 40.9026 141.248 41.0509 141.368 41.245C141.49 41.4391 141.552 41.6746 141.552 41.9516ZM140.946 41.9614C140.946 41.8022 140.912 41.6615 140.845 41.5394C140.777 41.4173 140.683 41.3213 140.564 41.2515C140.444 41.1795 140.304 41.1436 140.145 41.1436C139.986 41.1436 139.846 41.1774 139.726 41.245C139.608 41.3104 139.516 41.4042 139.448 41.5263C139.383 41.6485 139.35 41.7935 139.35 41.9614C139.35 42.125 139.383 42.2679 139.448 42.39C139.516 42.5121 139.609 42.607 139.729 42.6746C139.849 42.7422 139.989 42.776 140.148 42.776C140.307 42.776 140.446 42.7422 140.564 42.6746C140.683 42.607 140.777 42.5121 140.845 42.39C140.912 42.2679 140.946 42.125 140.946 41.9614ZM143.753 43.2013V43.6986H142.157V43.2013H143.753ZM147.401 44.9777V45.475H144.283V45.0399L145.844 43.3027C146.036 43.089 146.184 42.908 146.289 42.7597C146.395 42.6092 146.47 42.4751 146.511 42.3573C146.555 42.2373 146.577 42.1152 146.577 41.9909C146.577 41.8338 146.544 41.6921 146.478 41.5656C146.415 41.4369 146.321 41.3344 146.197 41.2581C146.073 41.1817 145.922 41.1436 145.746 41.1436C145.534 41.1436 145.357 41.185 145.216 41.2679C145.076 41.3486 144.971 41.462 144.902 41.6081C144.832 41.7542 144.797 41.9222 144.797 42.1119H144.192C144.192 41.8437 144.25 41.5983 144.368 41.3758C144.486 41.1534 144.661 40.9767 144.892 40.8459C145.123 40.7128 145.408 40.6463 145.746 40.6463C146.047 40.6463 146.304 40.6997 146.518 40.8066C146.731 40.9113 146.895 41.0596 147.008 41.2515C147.124 41.4413 147.182 41.6637 147.182 41.9189C147.182 42.0585 147.158 42.2003 147.11 42.3442C147.064 42.486 147 42.6277 146.917 42.7695C146.836 42.9113 146.741 43.0508 146.632 43.1882C146.525 43.3256 146.411 43.4609 146.289 43.5939L145.013 44.9777H147.401ZM151.268 43.872V44.3692H147.826V44.0127L149.959 40.7117H150.453L149.923 41.667L148.513 43.872H151.268ZM150.604 40.7117V45.475H149.998V40.7117H150.604Z" fill="#8794BA"/>
<path d="M216.737 88.5277V89.025H213.619V88.5899L215.18 86.8527C215.372 86.639 215.52 86.458 215.625 86.3097C215.731 86.1592 215.806 86.025 215.847 85.9073C215.891 85.7873 215.912 85.6652 215.912 85.5409C215.912 85.3838 215.88 85.2421 215.814 85.1156C215.751 84.9869 215.657 84.8844 215.533 84.8081C215.409 84.7317 215.258 84.6935 215.081 84.6935C214.87 84.6935 214.693 84.735 214.552 84.8179C214.412 84.8986 214.307 85.012 214.237 85.1581C214.168 85.3042 214.133 85.4722 214.133 85.6619H213.528C213.528 85.3936 213.586 85.1483 213.704 84.9258C213.822 84.7034 213.996 84.5267 214.228 84.3958C214.459 84.2628 214.743 84.1963 215.081 84.1963C215.382 84.1963 215.64 84.2497 215.854 84.3566C216.067 84.4613 216.231 84.6096 216.344 84.8015C216.46 84.9913 216.518 85.2137 216.518 85.4689C216.518 85.6085 216.494 85.7502 216.446 85.8942C216.4 86.0359 216.336 86.1777 216.253 86.3195C216.172 86.4612 216.077 86.6008 215.968 86.7382C215.861 86.8756 215.747 87.0109 215.625 87.1439L214.349 88.5277H216.737ZM218.15 86.7579L217.666 86.6335L217.905 84.2617H220.349V84.8211H218.418L218.274 86.1166C218.362 86.0665 218.472 86.0196 218.605 85.976C218.74 85.9324 218.895 85.9105 219.069 85.9105C219.29 85.9105 219.487 85.9487 219.662 86.025C219.836 86.0992 219.984 86.2061 220.106 86.3456C220.231 86.4852 220.326 86.6532 220.391 86.8495C220.457 87.0457 220.489 87.2649 220.489 87.507C220.489 87.736 220.458 87.9465 220.394 88.1384C220.333 88.3303 220.241 88.4983 220.116 88.6422C219.992 88.784 219.835 88.8941 219.645 88.9727C219.458 89.0512 219.236 89.0904 218.981 89.0904C218.789 89.0904 218.607 89.0643 218.435 89.0119C218.265 88.9574 218.112 88.8756 217.977 88.7665C217.844 88.6553 217.735 88.5179 217.65 88.3543C217.567 88.1886 217.514 87.9945 217.493 87.772H218.068C218.095 87.9509 218.147 88.1013 218.225 88.2235C218.304 88.3456 218.406 88.4383 218.533 88.5016C218.662 88.5626 218.811 88.5932 218.981 88.5932C219.125 88.5932 219.253 88.5681 219.364 88.5179C219.475 88.4678 219.569 88.3958 219.645 88.302C219.722 88.2082 219.779 88.0948 219.819 87.9618C219.86 87.8287 219.881 87.6793 219.881 87.5136C219.881 87.3631 219.86 87.2235 219.819 87.0948C219.777 86.9661 219.715 86.8538 219.632 86.7579C219.551 86.6619 219.452 86.5877 219.334 86.5354C219.217 86.4809 219.081 86.4536 218.929 86.4536C218.726 86.4536 218.572 86.4809 218.467 86.5354C218.365 86.5899 218.259 86.6641 218.15 86.7579ZM222.478 86.7513V87.2486H220.882V86.7513H222.478ZM223.888 86.3456H224.32C224.532 86.3456 224.706 86.3108 224.844 86.241C224.983 86.169 225.087 86.0719 225.154 85.9498C225.224 85.8255 225.259 85.6859 225.259 85.531C225.259 85.3478 225.229 85.1941 225.167 85.0698C225.106 84.9455 225.015 84.8517 224.893 84.7884C224.771 84.7252 224.616 84.6935 224.428 84.6935C224.258 84.6935 224.108 84.7274 223.977 84.795C223.848 84.8604 223.747 84.9542 223.672 85.0763C223.6 85.1984 223.564 85.3424 223.564 85.5081H222.959C222.959 85.2661 223.02 85.0458 223.142 84.8473C223.265 84.6488 223.436 84.4907 223.656 84.3729C223.879 84.2552 224.136 84.1963 224.428 84.1963C224.716 84.1963 224.968 84.2475 225.184 84.35C225.4 84.4504 225.568 84.6009 225.688 84.8015C225.808 85 225.868 85.2475 225.868 85.5441C225.868 85.6641 225.839 85.7928 225.783 85.9302C225.728 86.0654 225.642 86.1919 225.524 86.3097C225.408 86.4274 225.258 86.5245 225.073 86.6008C224.887 86.675 224.665 86.7121 224.405 86.7121H223.888V86.3456ZM223.888 86.8429V86.4798H224.405C224.708 86.4798 224.959 86.5158 225.158 86.5877C225.356 86.6597 225.512 86.7557 225.625 86.8756C225.741 86.9956 225.822 87.1275 225.868 87.2715C225.916 87.4132 225.94 87.555 225.94 87.6968C225.94 87.9192 225.901 88.1166 225.825 88.2889C225.751 88.4612 225.645 88.6073 225.508 88.7273C225.372 88.8472 225.213 88.9378 225.03 88.9988C224.847 89.0599 224.647 89.0904 224.431 89.0904C224.224 89.0904 224.029 89.061 223.846 89.0021C223.665 88.9432 223.504 88.8581 223.365 88.7469C223.225 88.6335 223.116 88.495 223.038 88.3314C222.959 88.1657 222.92 87.977 222.92 87.7655H223.525C223.525 87.9312 223.561 88.0763 223.633 88.2006C223.707 88.3249 223.812 88.422 223.947 88.4917C224.085 88.5594 224.246 88.5932 224.431 88.5932C224.617 88.5932 224.776 88.5615 224.909 88.4983C225.044 88.4329 225.148 88.3347 225.22 88.2039C225.294 88.073 225.331 87.9083 225.331 87.7099C225.331 87.5114 225.29 87.3489 225.207 87.2224C225.124 87.0937 225.006 86.9989 224.853 86.9378C224.703 86.8745 224.525 86.8429 224.32 86.8429H223.888ZM229.993 87.422V87.9192H226.551V87.5626L228.684 84.2617H229.178L228.648 85.217L227.238 87.422H229.993ZM229.329 84.2617V89.025H228.724V84.2617H229.329Z" fill="#8794BA"/>
<path d="M214.499 159.487H214.931C215.143 159.487 215.317 159.452 215.454 159.383C215.594 159.311 215.698 159.214 215.765 159.091C215.835 158.967 215.87 158.828 215.87 158.673C215.87 158.49 215.839 158.336 215.778 158.211C215.717 158.087 215.626 157.993 215.504 157.93C215.381 157.867 215.227 157.835 215.039 157.835C214.869 157.835 214.718 157.869 214.587 157.937C214.459 158.002 214.357 158.096 214.283 158.218C214.211 158.34 214.175 158.484 214.175 158.65H213.57C213.57 158.408 213.631 158.187 213.753 157.989C213.875 157.791 214.047 157.632 214.267 157.515C214.489 157.397 214.747 157.338 215.039 157.338C215.327 157.338 215.579 157.389 215.795 157.492C216.011 157.592 216.179 157.743 216.298 157.943C216.418 158.142 216.478 158.389 216.478 158.686C216.478 158.806 216.45 158.934 216.393 159.072C216.339 159.207 216.253 159.334 216.135 159.451C216.019 159.569 215.869 159.666 215.683 159.742C215.498 159.817 215.276 159.854 215.016 159.854H214.499V159.487ZM214.499 159.985V159.621H215.016C215.319 159.621 215.57 159.657 215.769 159.729C215.967 159.801 216.123 159.897 216.236 160.017C216.352 160.137 216.433 160.269 216.478 160.413C216.526 160.555 216.55 160.697 216.55 160.838C216.55 161.061 216.512 161.258 216.436 161.431C216.362 161.603 216.256 161.749 216.119 161.869C215.983 161.989 215.824 162.079 215.641 162.14C215.458 162.202 215.258 162.232 215.042 162.232C214.835 162.232 214.64 162.203 214.457 162.144C214.276 162.085 214.115 162 213.976 161.889C213.836 161.775 213.727 161.637 213.649 161.473C213.57 161.307 213.531 161.119 213.531 160.907H214.136C214.136 161.073 214.172 161.218 214.244 161.342C214.318 161.467 214.423 161.564 214.558 161.633C214.695 161.701 214.857 161.735 215.042 161.735C215.228 161.735 215.387 161.703 215.52 161.64C215.655 161.575 215.759 161.476 215.831 161.346C215.905 161.215 215.942 161.05 215.942 160.852C215.942 160.653 215.9 160.491 215.818 160.364C215.735 160.235 215.617 160.141 215.464 160.079C215.314 160.016 215.136 159.985 214.931 159.985H214.499ZM218.15 159.9L217.666 159.775L217.905 157.403H220.349V157.963H218.418L218.274 159.258C218.362 159.208 218.472 159.161 218.605 159.118C218.74 159.074 218.895 159.052 219.069 159.052C219.29 159.052 219.487 159.09 219.662 159.167C219.836 159.241 219.984 159.348 220.106 159.487C220.231 159.627 220.326 159.795 220.391 159.991C220.457 160.187 220.489 160.407 220.489 160.649C220.489 160.878 220.458 161.088 220.394 161.28C220.333 161.472 220.241 161.64 220.116 161.784C219.992 161.926 219.835 162.036 219.645 162.114C219.458 162.193 219.236 162.232 218.981 162.232C218.789 162.232 218.607 162.206 218.435 162.154C218.265 162.099 218.112 162.017 217.977 161.908C217.844 161.797 217.735 161.66 217.65 161.496C217.567 161.33 217.514 161.136 217.493 160.914H218.068C218.095 161.093 218.147 161.243 218.225 161.365C218.304 161.487 218.406 161.58 218.533 161.643C218.662 161.704 218.811 161.735 218.981 161.735C219.125 161.735 219.253 161.71 219.364 161.66C219.475 161.609 219.569 161.537 219.645 161.444C219.722 161.35 219.779 161.236 219.819 161.103C219.86 160.97 219.881 160.821 219.881 160.655C219.881 160.505 219.86 160.365 219.819 160.236C219.777 160.108 219.715 159.995 219.632 159.9C219.551 159.804 219.452 159.729 219.334 159.677C219.217 159.623 219.081 159.595 218.929 159.595C218.726 159.595 218.572 159.623 218.467 159.677C218.365 159.732 218.259 159.806 218.15 159.9ZM222.478 159.893V160.39H220.882V159.893H222.478ZM226.224 160.564V161.061H222.783V160.704L224.916 157.403H225.41L224.88 158.359L223.47 160.564H226.224ZM225.56 157.403V162.167H224.955V157.403H225.56ZM229.993 160.564V161.061H226.551V160.704L228.684 157.403H229.178L228.648 158.359L227.238 160.564H229.993ZM229.329 157.403V162.167H228.724V157.403H229.329Z" fill="#8794BA"/>
<path d="M138.11 208.022V208.519H134.668V208.163L136.801 204.862H137.295L136.765 205.817L135.355 208.022H138.11ZM137.446 204.862V209.625H136.841V204.862H137.446ZM139.425 207.358L138.941 207.234L139.18 204.862H141.623V205.421H139.693L139.549 206.717C139.637 206.666 139.747 206.62 139.88 206.576C140.015 206.532 140.17 206.511 140.344 206.511C140.565 206.511 140.762 206.549 140.936 206.625C141.111 206.699 141.259 206.806 141.381 206.946C141.506 207.085 141.601 207.253 141.666 207.449C141.731 207.646 141.764 207.865 141.764 208.107C141.764 208.336 141.733 208.547 141.669 208.738C141.608 208.93 141.516 209.098 141.391 209.242C141.267 209.384 141.11 209.494 140.92 209.573C140.733 209.651 140.511 209.69 140.256 209.69C140.064 209.69 139.882 209.664 139.71 209.612C139.54 209.557 139.387 209.476 139.252 209.367C139.119 209.255 139.01 209.118 138.925 208.954C138.842 208.789 138.789 208.594 138.767 208.372H139.343C139.369 208.551 139.422 208.701 139.5 208.823C139.579 208.946 139.681 209.038 139.808 209.102C139.936 209.163 140.086 209.193 140.256 209.193C140.4 209.193 140.528 209.168 140.639 209.118C140.75 209.068 140.844 208.996 140.92 208.902C140.996 208.808 141.054 208.695 141.094 208.562C141.135 208.429 141.156 208.279 141.156 208.114C141.156 207.963 141.135 207.824 141.094 207.695C141.052 207.566 140.99 207.454 140.907 207.358C140.826 207.262 140.727 207.188 140.609 207.135C140.492 207.081 140.356 207.054 140.204 207.054C140.001 207.054 139.847 207.081 139.742 207.135C139.64 207.19 139.534 207.264 139.425 207.358ZM143.753 207.351V207.849H142.157V207.351H143.753ZM145.045 207.358L144.561 207.234L144.8 204.862H147.244V205.421H145.314L145.17 206.717C145.257 206.666 145.367 206.62 145.5 206.576C145.635 206.532 145.79 206.511 145.965 206.511C146.185 206.511 146.382 206.549 146.557 206.625C146.731 206.699 146.88 206.806 147.002 206.946C147.126 207.085 147.221 207.253 147.286 207.449C147.352 207.646 147.385 207.865 147.385 208.107C147.385 208.336 147.353 208.547 147.29 208.738C147.229 208.93 147.136 209.098 147.012 209.242C146.887 209.384 146.73 209.494 146.541 209.573C146.353 209.651 146.132 209.69 145.876 209.69C145.684 209.69 145.502 209.664 145.33 209.612C145.16 209.557 145.007 209.476 144.872 209.367C144.739 209.255 144.63 209.118 144.545 208.954C144.462 208.789 144.41 208.594 144.388 208.372H144.964C144.99 208.551 145.042 208.701 145.121 208.823C145.199 208.946 145.302 209.038 145.428 209.102C145.557 209.163 145.706 209.193 145.876 209.193C146.02 209.193 146.148 209.168 146.259 209.118C146.37 209.068 146.464 208.996 146.541 208.902C146.617 208.808 146.675 208.695 146.714 208.562C146.755 208.429 146.776 208.279 146.776 208.114C146.776 207.963 146.755 207.824 146.714 207.695C146.672 207.566 146.61 207.454 146.527 207.358C146.447 207.262 146.348 207.188 146.23 207.135C146.112 207.081 145.977 207.054 145.824 207.054C145.621 207.054 145.467 207.081 145.363 207.135C145.26 207.19 145.155 207.264 145.045 207.358ZM151.268 208.022V208.519H147.826V208.163L149.959 204.862H150.453L149.923 205.817L148.513 208.022H151.268ZM150.604 204.862V209.625H149.998V204.862H150.604Z" fill="#8794BA"/>
<path d="M56.9314 159.9L56.4473 159.775L56.6861 157.403H59.1299V157.963H57.1997L57.0558 159.258C57.143 159.208 57.2531 159.161 57.3862 159.118C57.5214 159.074 57.6763 159.052 57.8507 159.052C58.071 159.052 58.2684 159.09 58.4429 159.167C58.6173 159.241 58.7657 159.348 58.8878 159.487C59.0121 159.627 59.107 159.795 59.1724 159.991C59.2378 160.187 59.2706 160.407 59.2706 160.649C59.2706 160.878 59.2389 161.088 59.1757 161.28C59.1146 161.472 59.0219 161.64 58.8976 161.784C58.7733 161.926 58.6163 162.036 58.4265 162.114C58.2389 162.193 58.0176 162.232 57.7624 162.232C57.5705 162.232 57.3884 162.206 57.2161 162.154C57.0459 162.099 56.8933 162.017 56.7581 161.908C56.625 161.797 56.516 161.66 56.4309 161.496C56.348 161.33 56.2957 161.136 56.2739 160.914H56.8497C56.8758 161.093 56.9282 161.243 57.0067 161.365C57.0852 161.487 57.1877 161.58 57.3142 161.643C57.4429 161.704 57.5923 161.735 57.7624 161.735C57.9063 161.735 58.0339 161.71 58.1452 161.66C58.2564 161.609 58.3502 161.537 58.4265 161.444C58.5028 161.35 58.5606 161.236 58.5999 161.103C58.6413 160.97 58.6621 160.821 58.6621 160.655C58.6621 160.505 58.6413 160.365 58.5999 160.236C58.5585 160.108 58.4963 159.995 58.4134 159.9C58.3327 159.804 58.2335 159.729 58.1157 159.677C57.9979 159.623 57.8627 159.595 57.7101 159.595C57.5072 159.595 57.3535 159.623 57.2488 159.677C57.1463 159.732 57.0405 159.806 56.9314 159.9ZM60.7002 159.9L60.216 159.775L60.4548 157.403H62.8986V157.963H60.9685L60.8245 159.258C60.9118 159.208 61.0219 159.161 61.1549 159.118C61.2902 159.074 61.445 159.052 61.6195 159.052C61.8398 159.052 62.0371 159.09 62.2116 159.167C62.3861 159.241 62.5344 159.348 62.6565 159.487C62.7809 159.627 62.8757 159.795 62.9412 159.991C63.0066 160.187 63.0393 160.407 63.0393 160.649C63.0393 160.878 63.0077 161.088 62.9444 161.28C62.8834 161.472 62.7907 161.64 62.6664 161.784C62.542 161.926 62.385 162.036 62.1953 162.114C62.0077 162.193 61.7863 162.232 61.5312 162.232C61.3392 162.232 61.1571 162.206 60.9848 162.154C60.8147 162.099 60.662 162.017 60.5268 161.908C60.3938 161.797 60.2847 161.66 60.1997 161.496C60.1168 161.33 60.0644 161.136 60.0426 160.914H60.6184C60.6446 161.093 60.6969 161.243 60.7754 161.365C60.854 161.487 60.9565 161.58 61.083 161.643C61.2116 161.704 61.361 161.735 61.5312 161.735C61.6751 161.735 61.8027 161.71 61.9139 161.66C62.0251 161.609 62.1189 161.537 62.1953 161.444C62.2716 161.35 62.3294 161.236 62.3687 161.103C62.4101 160.97 62.4308 160.821 62.4308 160.655C62.4308 160.505 62.4101 160.365 62.3687 160.236C62.3272 160.108 62.2651 159.995 62.1822 159.9C62.1015 159.804 62.0022 159.729 61.8845 159.677C61.7667 159.623 61.6315 159.595 61.4788 159.595C61.276 159.595 61.1222 159.623 61.0175 159.677C60.915 159.732 60.8092 159.806 60.7002 159.9ZM65.0284 159.893V160.39H63.4319V159.893H65.0284ZM67.8778 157.397H67.9302V157.91H67.8778C67.5572 157.91 67.289 157.963 67.073 158.067C66.8571 158.17 66.6859 158.308 66.5594 158.483C66.4329 158.655 66.3413 158.849 66.2846 159.065C66.2301 159.281 66.2028 159.5 66.2028 159.723V160.423C66.2028 160.635 66.2279 160.822 66.2781 160.986C66.3282 161.147 66.3969 161.283 66.4842 161.395C66.5714 161.506 66.6696 161.59 66.7786 161.646C66.8898 161.703 67.0054 161.732 67.1254 161.732C67.265 161.732 67.3893 161.705 67.4983 161.653C67.6074 161.599 67.699 161.523 67.7731 161.427C67.8495 161.329 67.9073 161.214 67.9465 161.081C67.9858 160.947 68.0054 160.801 68.0054 160.642C68.0054 160.5 67.988 160.364 67.9531 160.233C67.9182 160.1 67.8647 159.982 67.7928 159.88C67.7208 159.775 67.6303 159.693 67.5212 159.635C67.4144 159.573 67.2868 159.543 67.1385 159.543C66.9705 159.543 66.8135 159.584 66.6674 159.667C66.5234 159.748 66.4046 159.855 66.3108 159.988C66.2192 160.119 66.1668 160.262 66.1538 160.416L65.8332 160.413C65.8637 160.169 65.9204 159.961 66.0033 159.788C66.0883 159.614 66.193 159.472 66.3173 159.363C66.4438 159.252 66.5845 159.171 66.7394 159.121C66.8964 159.069 67.0621 159.042 67.2366 159.042C67.4743 159.042 67.6794 159.087 67.8517 159.177C68.024 159.266 68.1657 159.386 68.277 159.536C68.3882 159.685 68.47 159.853 68.5223 160.04C68.5768 160.226 68.6041 160.416 68.6041 160.613C68.6041 160.837 68.5725 161.048 68.5092 161.244C68.446 161.44 68.3511 161.613 68.2246 161.761C68.1003 161.909 67.9465 162.025 67.7633 162.108C67.5801 162.191 67.3675 162.232 67.1254 162.232C66.868 162.232 66.6434 162.18 66.4515 162.075C66.2595 161.968 66.1003 161.826 65.9738 161.65C65.8473 161.473 65.7525 161.277 65.6892 161.061C65.626 160.845 65.5943 160.626 65.5943 160.403V160.119C65.5943 159.783 65.6281 159.454 65.6958 159.131C65.7634 158.808 65.88 158.516 66.0458 158.254C66.2137 157.992 66.446 157.784 66.7426 157.629C67.0392 157.474 67.4176 157.397 67.8778 157.397ZM72.543 160.564V161.061H69.1014V160.704L71.2344 157.403H71.7284L71.1984 158.359L69.7884 160.564H72.543ZM71.8789 157.403V162.167H71.2736V157.403H71.8789Z" fill="#8794BA"/>
<path d="M60.574 84.2552H60.6264V84.7688H60.574C60.2534 84.7688 59.9852 84.8211 59.7692 84.9258C59.5533 85.0283 59.3821 85.1668 59.2556 85.3413C59.1291 85.5136 59.0375 85.7077 58.9808 85.9236C58.9263 86.1395 58.899 86.3587 58.899 86.5812V87.2813C58.899 87.4928 58.9241 87.6804 58.9743 87.844C59.0244 88.0054 59.0931 88.1417 59.1804 88.2529C59.2676 88.3642 59.3658 88.4481 59.4748 88.5048C59.586 88.5615 59.7016 88.5899 59.8216 88.5899C59.9612 88.5899 60.0855 88.5637 60.1945 88.5114C60.3036 88.4568 60.3952 88.3816 60.4693 88.2856C60.5457 88.1875 60.6035 88.0719 60.6427 87.9389C60.682 87.8058 60.7016 87.6597 60.7016 87.5005C60.7016 87.3587 60.6842 87.2224 60.6493 87.0915C60.6144 86.9585 60.5609 86.8407 60.489 86.7382C60.417 86.6335 60.3265 86.5518 60.2174 86.4929C60.1106 86.4318 59.983 86.4013 59.8347 86.4013C59.6667 86.4013 59.5097 86.4427 59.3636 86.5256C59.2196 86.6063 59.1008 86.7131 59.007 86.8462C58.9154 86.977 58.863 87.1199 58.85 87.2747L58.5293 87.2715C58.5599 87.0272 58.6166 86.8189 58.6995 86.6466C58.7845 86.4721 58.8892 86.3304 59.0135 86.2213C59.14 86.1101 59.2807 86.0294 59.4355 85.9792C59.5926 85.9269 59.7583 85.9007 59.9328 85.9007C60.1705 85.9007 60.3756 85.9454 60.5479 86.0349C60.7201 86.1243 60.8619 86.2442 60.9731 86.3947C61.0844 86.543 61.1662 86.711 61.2185 86.8985C61.273 87.0839 61.3003 87.2747 61.3003 87.471C61.3003 87.6957 61.2687 87.9061 61.2054 88.1024C61.1422 88.2987 61.0473 88.471 60.9208 88.6193C60.7965 88.7676 60.6427 88.8832 60.4595 88.9661C60.2763 89.049 60.0637 89.0904 59.8216 89.0904C59.5642 89.0904 59.3396 89.0381 59.1477 88.9334C58.9557 88.8265 58.7965 88.6848 58.67 88.5081C58.5435 88.3314 58.4486 88.1352 58.3854 87.9192C58.3222 87.7033 58.2905 87.4841 58.2905 87.2617V86.977C58.2905 86.6412 58.3243 86.3118 58.3919 85.9891C58.4596 85.6663 58.5762 85.374 58.742 85.1123C58.9099 84.8506 59.1422 84.6423 59.4388 84.4874C59.7354 84.3326 60.1138 84.2552 60.574 84.2552ZM62.7855 86.7579L62.3014 86.6335L62.5402 84.2617H64.984V84.8211H63.0538L62.9099 86.1166C62.9971 86.0665 63.1072 86.0196 63.2403 85.976C63.3755 85.9324 63.5304 85.9105 63.7048 85.9105C63.9251 85.9105 64.1225 85.9487 64.297 86.025C64.4715 86.0992 64.6198 86.2061 64.7419 86.3456C64.8662 86.4852 64.9611 86.6532 65.0265 86.8495C65.0919 87.0457 65.1247 87.2649 65.1247 87.507C65.1247 87.736 65.093 87.9465 65.0298 88.1384C64.9687 88.3303 64.876 88.4983 64.7517 88.6422C64.6274 88.784 64.4704 88.8941 64.2806 88.9727C64.0931 89.0512 63.8717 89.0904 63.6165 89.0904C63.4246 89.0904 63.2425 89.0643 63.0702 89.0119C62.9 88.9574 62.7474 88.8756 62.6122 88.7665C62.4791 88.6553 62.3701 88.5179 62.285 88.3543C62.2021 88.1886 62.1498 87.9945 62.128 87.772H62.7038C62.7299 87.9509 62.7823 88.1013 62.8608 88.2235C62.9393 88.3456 63.0418 88.4383 63.1683 88.5016C63.297 88.5626 63.4464 88.5932 63.6165 88.5932C63.7604 88.5932 63.888 88.5681 63.9993 88.5179C64.1105 88.4678 64.2043 88.3958 64.2806 88.302C64.357 88.2082 64.4147 88.0948 64.454 87.9618C64.4954 87.8287 64.5162 87.6793 64.5162 87.5136C64.5162 87.3631 64.4954 87.2235 64.454 87.0948C64.4126 86.9661 64.3504 86.8538 64.2675 86.7579C64.1868 86.6619 64.0876 86.5877 63.9698 86.5354C63.8521 86.4809 63.7168 86.4536 63.5642 86.4536C63.3613 86.4536 63.2076 86.4809 63.1029 86.5354C63.0004 86.5899 62.8946 86.6641 62.7855 86.7579ZM68.913 86.47V87.0392H65.6481V86.47H68.913ZM67.5848 85.0796V88.5474H66.9796V85.0796H67.5848Z" fill="#8794BA"/>
<defs>
<filter id="filter0_d_535_2508" x="0.458334" y="0.508334" width="374.083" height="268" filterUnits="userSpaceOnUse" color-interpolation-filters="sRGB">
<feFlood flood-opacity="0" result="BackgroundImageFix"/>
<feColorMatrix in="SourceAlpha" type="matrix" values="0 0 0 0 0 0 0 0 0 0 0 0 0 0 0 0 0 0 127 0" result="hardAlpha"/>
<feMorphology radius="8.375" operator="erode" in="SourceAlpha" result="effect1_dropShadow_535_2508"/>
<feOffset dy="10.05"/>
<feGaussianBlur stdDeviation="13.9583"/>
<feColorMatrix type="matrix" values="0 0 0 0 0.0996452 0 0 0 0 0.164326 0 0 0 0 0.350284 0 0 0 0.2 0"/>
<feBlend mode="normal" in2="BackgroundImageFix" result="effect1_dropShadow_535_2508"/>
<feBlend mode="normal" in="SourceGraphic" in2="effect1_dropShadow_535_2508" result="shape"/>
</filter>
</defs>
</svg>
